<?xml version="1.0" encoding="UTF-8" standalone="no" ?>
<!DOCTYPE svg PUBLIC "-//W3C//DTD SVG 1.1//EN" "http://www.w3.org/Graphics/SVG/1.1/DTD/svg11.dtd">
<svg xmlns="http://www.w3.org/2000/svg" xmlns:xlink="http://www.w3.org/1999/xlink" version="1.1" width="1080" height="1080" viewBox="0 0 1080 1080" xml:space="preserve">
<desc>Created with Fabric.js 5.2.4</desc>
<defs>
</defs>
<g transform="matrix(1 0 0 1 540 540)" id="4e0cbe71-a9b5-46fc-ba3b-9d54e4a806fc"  >
<rect style="stroke: none; stroke-width: 1; stroke-dasharray: none; stroke-linecap: butt; stroke-dashoffset: 0; stroke-linejoin: miter; stroke-miterlimit: 4; fill: rgb(255,255,255); fill-rule: nonzero; opacity: 1; visibility: hidden;" vector-effect="non-scaling-stroke"  x="-540" y="-540" rx="0" ry="0" width="1080" height="1080" />
</g>
<g transform="matrix(1 0 0 1 540 540)" id="d7a283f5-f7ef-4305-92b3-19862b2f1117"  >
</g>
<g transform="matrix(0.66 0 0 0.66 540 352.01)"  >
<g style="" vector-effect="non-scaling-stroke"   >
		<g transform="matrix(5.98 0 0 5.98 0 376.65)" id="text-0"  >
<path style="stroke: none; stroke-width: 1; stroke-dasharray: none; stroke-linecap: butt; stroke-dashoffset: 0; stroke-linejoin: miter; stroke-miterlimit: 4; fill: rgb(224,159,5); fill-rule: nonzero; opacity: 1;" vector-effect="non-scaling-stroke"  transform=" translate(-127.85, 7.71)" d="M 4.428 -15.942 L 4.428 -15.942 C 3.88 -18.484 4.522 -20.832 6.356 -22.987000000000002 C 8.188 -25.149 10.719999999999999 -26.578000000000003 13.952 -27.275000000000002 L 13.952 -27.275000000000002 C 16.454 -27.815 18.52 -27.725 20.149 -27.006000000000004 C 21.771 -26.285000000000004 22.788 -24.967000000000002 23.201 -23.051000000000002 L 23.201 -23.051000000000002 C 23.522000000000002 -21.565 23.409 -20.283 22.865000000000002 -19.203000000000003 C 22.322000000000003 -18.117000000000004 21.441000000000003 -17.443 20.222 -17.181000000000004 L 20.222 -17.180000000000003 C 19.759 -17.080000000000002 19.321 -17.071 18.908 -17.153000000000002 C 18.488 -17.233 18.093 -17.424000000000003 17.721 -17.725 L 17.721 -17.725 C 18.293 -18.264000000000003 18.7 -18.973000000000003 18.94 -19.85 C 19.186 -20.735000000000003 19.216 -21.604000000000003 19.032 -22.458000000000002 L 19.032 -22.458000000000002 C 18.804 -23.514000000000003 18.312 -24.263 17.555 -24.707 C 16.804 -25.152 15.836 -25.247 14.65 -24.991 L 14.65 -24.991 C 13.229000000000001 -24.685 12.201 -24.047 11.564 -23.076999999999998 C 10.926 -22.113999999999997 10.76 -20.921999999999997 11.067 -19.502 L 11.067 -19.502 C 11.316 -18.349 11.849 -17.314 12.667 -16.4 C 13.49 -15.492999999999999 15.077 -14.378999999999998 17.428 -13.058999999999997 L 17.428 -13.058999999999997 C 20.527 -11.339999999999998 22.669 -9.739999999999998 23.855 -8.255999999999997 C 25.036 -6.764999999999997 25.847 -4.995999999999997 26.289 -2.9499999999999966 L 26.289 -2.9499999999999966 C 27.1 0.8100000000000032 26.444000000000003 4.092000000000003 24.321 6.897000000000003 C 22.198 9.701000000000002 19.11 11.540000000000003 15.056000000000001 12.414000000000003 L 15.056000000000001 12.414000000000003 C 11.824000000000002 13.111000000000002 9.106000000000002 12.923000000000004 6.904000000000002 11.850000000000003 C 4.707000000000002 10.769000000000004 3.3160000000000016 8.876000000000003 2.7330000000000014 6.172000000000003 L 2.7330000000000014 6.172000000000003 C 2.2200000000000015 3.7930000000000033 2.5070000000000014 1.6920000000000028 3.5930000000000013 -0.13099999999999667 C 4.686000000000002 -1.9559999999999966 6.240000000000001 -3.084999999999997 8.253000000000002 -3.5199999999999965 L 8.253000000000002 -3.5199999999999965 C 9.504000000000001 -3.7899999999999965 10.590000000000002 -3.7209999999999965 11.510000000000002 -3.3119999999999963 C 12.424000000000001 -2.901999999999996 13.023000000000001 -2.192999999999996 13.310000000000002 -1.1829999999999963 L 13.310000000000002 -1.1829999999999963 C 11.596000000000002 -0.8129999999999963 10.293000000000003 -0.1029999999999962 9.401000000000003 0.9490000000000038 C 8.504000000000003 2.009000000000004 8.212000000000003 3.262000000000004 8.524000000000003 4.708000000000004 L 8.524000000000003 4.708000000000004 C 8.823000000000002 6.096000000000004 9.500000000000004 7.144000000000004 10.553000000000003 7.8510000000000035 C 11.598000000000003 8.553000000000004 12.847000000000003 8.747000000000003 14.300000000000002 8.434000000000003 L 14.300000000000002 8.434000000000003 C 16.014000000000003 8.064000000000004 17.271 7.173000000000003 18.071 5.759000000000003 C 18.871000000000002 4.345000000000003 19.054000000000002 2.631000000000003 18.619 0.618000000000003 L 18.619 0.618000000000003 C 18.284 -0.9329999999999969 17.619 -2.343999999999997 16.621 -3.615999999999997 C 15.624999999999998 -4.880999999999997 13.778999999999998 -6.467999999999996 11.082999999999998 -8.374999999999996 L 11.082999999999998 -8.374999999999996 C 8.652999999999999 -10.059999999999997 7.001999999999998 -11.436999999999996 6.1309999999999985 -12.503999999999996 C 5.257999999999998 -13.576999999999996 4.690999999999999 -14.723999999999997 4.427999999999998 -15.941999999999997 z M 28.054 -15.155 L 28.11 -17.213 L 29.756999999999998 -17.493000000000002 L 30.084999999999997 -24.639000000000003 L 37.3 -26.888 L 36.943999999999996 -18.713 L 39.940999999999995 -19.222 L 39.87499999999999 -17.162000000000003 L 36.88799999999999 -16.655 L 36.23599999999999 -1.1370000000000005 C 36.22199999999999 -0.8230000000000004 36.21899999999999 -0.5390000000000005 36.22899999999999 -0.2840000000000005 C 36.23199999999999 -0.02800000000000047 36.25599999999999 0.23199999999999954 36.29999999999999 0.49499999999999955 L 36.29999999999999 0.49499999999999955 C 36.41299999999999 1.1589999999999996 36.65399999999999 1.6049999999999995 37.02499999999999 1.8329999999999997 C 37.38799999999999 2.062 37.93499999999999 2.1149999999999998 38.663999999999994 1.9909999999999997 L 38.663999999999994 1.9909999999999997 C 39.596999999999994 1.8329999999999997 40.40899999999999 1.2749999999999997 41.099 0.3199999999999996 C 41.794999999999995 -0.6370000000000003 42.233999999999995 -1.7970000000000004 42.415 -3.16 L 42.415 -3.16 L 44.504999999999995 -3.515 C 43.955 -0.30400000000000027 42.91499999999999 2.2319999999999998 41.385 4.095000000000001 C 39.85 5.965000000000001 37.919 7.098000000000001 35.592 7.493 L 35.592 7.493 C 33.929 7.775 32.536 7.474 31.412 6.59 C 30.287 5.699 29.564 4.307 29.241999999999997 2.4139999999999997 L 29.241999999999997 2.4139999999999997 C 29.167999999999996 1.9799999999999998 29.118 1.4849999999999997 29.090999999999998 0.9279999999999997 C 29.063 0.36499999999999977 29.060999999999996 -0.24400000000000022 29.086 -0.8960000000000004 L 29.086 -0.8960000000000004 L 29.700999999999997 -15.434000000000001 z M 51.18 0.138 L 51.18 0.138 C 52.052 0.022000000000000006 52.782 -0.45799999999999996 53.37 -1.302 C 53.958 -2.14 54.372 -3.308 54.61 -4.805 L 54.61 -4.805 L 55.894 -21.368 L 63.111 -22.325 L 61.765 -4.785999999999998 C 61.739 -4.472999999999998 61.726 -4.188999999999998 61.726 -3.932999999999998 C 61.726 -3.676999999999998 61.744 -3.417999999999998 61.778999999999996 -3.153999999999998 L 61.778999999999996 -3.153999999999998 C 61.867999999999995 -2.4869999999999983 62.089 -2.0319999999999983 62.443999999999996 -1.7889999999999981 C 62.79899999999999 -1.5469999999999982 63.342999999999996 -1.4739999999999982 64.077 -1.571999999999998 L 64.077 -1.571999999999998 C 64.949 -1.6879999999999982 65.685 -2.174999999999998 66.28399999999999 -3.0349999999999984 C 66.889 -3.9019999999999984 67.31299999999999 -5.064999999999998 67.55699999999999 -6.5219999999999985 L 67.55699999999999 -6.5219999999999985 L 69.66799999999999 -6.801999999999999 C 69.00599999999999 -3.5799999999999987 67.925 -1.0799999999999983 66.42599999999999 0.6990000000000016 C 64.92699999999999 2.4780000000000015 63.05399999999999 3.5170000000000017 60.80699999999999 3.8150000000000017 L 60.80699999999999 3.8150000000000017 C 59.37299999999999 4.005000000000002 58.164999999999985 3.7480000000000016 57.18399999999999 3.044000000000002 C 56.209999999999994 2.3390000000000017 55.55099999999999 1.2260000000000018 55.20799999999999 -0.29499999999999815 L 55.20799999999999 -0.29499999999999815 C 54.45599999999999 1.4390000000000018 53.520999999999994 2.780000000000002 52.40299999999999 3.729000000000002 C 51.28499999999999 4.678000000000002 49.95599999999999 5.254000000000001 48.41499999999999 5.458000000000002 L 48.41499999999999 5.458000000000002 C 46.742999999999995 5.680000000000002 45.36099999999999 5.328000000000002 44.270999999999994 4.404000000000002 C 43.178999999999995 3.4730000000000016 42.50699999999999 2.056000000000002 42.25399999999999 0.1520000000000019 L 42.25399999999999 0.1520000000000019 C 42.19599999999999 -0.2839999999999981 42.16399999999999 -0.7809999999999981 42.157999999999994 -1.337999999999998 C 42.14999999999999 -1.901999999999998 42.17099999999999 -2.509999999999998 42.217999999999996 -3.161999999999998 L 42.217999999999996 -3.161999999999998 L 43.492 -19.723 L 50.718999999999994 -20.682 L 49.37299999999999 -3.1419999999999995 C 49.34299999999999 -2.861999999999999 49.331999999999994 -2.6149999999999993 49.33999999999999 -2.4019999999999992 C 49.35599999999999 -2.181999999999999 49.37899999999999 -1.9529999999999992 49.41099999999999 -1.7149999999999992 L 49.41099999999999 -1.7149999999999992 C 49.499999999999986 -1.0479999999999992 49.688999999999986 -0.5549999999999993 49.97999999999999 -0.2369999999999992 C 50.27799999999999 0.08000000000000079 50.67799999999999 0.2050000000000008 51.17999999999999 0.1380000000000008 z M 74.147 -6.614 L 74.147 -6.614 C 74.256 -5.305 74.524 -4.337 74.95100000000001 -3.71 C 75.37700000000001 -3.09 76.05900000000001 -2.819 76.995 -2.8970000000000002 L 76.995 -2.8970000000000002 C 77.839 -2.967 78.63300000000001 -3.431 79.378 -4.29 C 80.116 -5.148 80.587 -6.194 80.792 -7.428 L 80.792 -7.428 L 80.772 -7.677 L 82.281 -19.433 C 82.13000000000001 -19.962 81.86500000000001 -20.372 81.486 -20.661 C 81.107 -20.957 80.631 -21.082 80.06 -21.034000000000002 L 80.06 -21.034000000000002 C 78.21300000000001 -20.880000000000003 76.70400000000001 -19.196 75.534 -15.981000000000002 C 74.357 -12.766000000000002 73.894 -9.643 74.147 -6.614000000000001 z M 82.536 -21.792 L 82.536 -21.792 L 82.553 -21.593 L 84.05799999999999 -33.399 L 91.43799999999999 -35.027 L 87.90699999999998 -7.308 C 87.86599999999999 -6.997 87.83899999999998 -6.7139999999999995 87.82699999999998 -6.459 C 87.81499999999998 -6.204 87.81999999999998 -5.943 87.84199999999998 -5.677 L 87.84199999999998 -5.677 C 87.89799999999998 -5.005999999999999 88.09699999999998 -4.5409999999999995 88.43999999999998 -4.282 C 88.78299999999999 -4.023 89.32599999999998 -3.924 90.06999999999998 -3.986 L 90.06999999999998 -3.986 C 90.93999999999998 -4.058 91.69499999999998 -4.509 92.33599999999998 -5.339 C 92.98199999999999 -6.176 93.46599999999998 -7.316000000000001 93.78699999999998 -8.761000000000001 L 93.78699999999998 -8.761000000000001 L 95.89899999999997 -8.937000000000001 C 95.10499999999998 -5.860000000000001 93.94099999999997 -3.4960000000000013 92.40599999999998 -1.8430000000000009 C 90.86499999999998 -0.18900000000000095 88.90099999999998 0.7369999999999992 86.51599999999998 0.935999999999999 L 86.51599999999998 0.935999999999999 C 85.13399999999997 1.050999999999999 83.98299999999998 0.765999999999999 83.06299999999997 0.07899999999999907 C 82.14299999999997 -0.607000000000001 81.52599999999997 -1.629000000000001 81.21199999999997 -2.987000000000001 L 81.21199999999997 -2.987000000000001 C 80.33099999999997 -1.355000000000001 79.29799999999997 -0.1020000000000012 78.11399999999998 0.7729999999999988 C 76.93599999999998 1.646999999999999 75.60599999999998 2.145999999999999 74.12399999999998 2.268999999999999 L 74.12399999999998 2.268999999999999 C 72.04499999999999 2.441999999999999 70.34799999999998 1.8739999999999988 69.03499999999998 0.5659999999999987 C 67.72099999999998 -0.7490000000000012 66.95599999999999 -2.703000000000001 66.74099999999999 -5.294000000000001 L 66.74099999999999 -5.294000000000001 C 66.58399999999999 -7.174000000000001 66.70599999999999 -9.164000000000001 67.10699999999999 -11.265 C 67.50699999999999 -13.365 68.14199999999998 -15.298000000000002 69.01199999999999 -17.063000000000002 L 69.01199999999999 -17.063000000000002 C 70.08899999999998 -19.146 71.41099999999999 -20.788000000000004 72.97699999999999 -21.989000000000004 C 74.53699999999999 -23.183000000000003 76.28999999999999 -23.860000000000003 78.23599999999999 -24.023000000000003 L 78.23599999999999 -24.023000000000003 C 79.55099999999999 -24.133000000000003 80.57999999999998 -23.991000000000003 81.32199999999999 -23.598000000000003 C 82.064 -23.205000000000002 82.469 -22.603 82.53599999999999 -21.792 z M 102.132 -4.669 L 102.132 -4.669 C 102.97800000000001 -4.699 103.72500000000001 -5.079999999999999 104.373 -5.81 C 105.021 -6.539999999999999 105.54 -7.59 105.932 -8.958 L 105.932 -8.958 L 108.888 -25.624000000000002 L 116.16300000000001 -25.884000000000004 L 111.99600000000001 -2.230000000000004 C 113.66000000000001 -2.897000000000004 114.95500000000001 -3.797000000000004 115.882 -4.9310000000000045 C 116.802 -6.058000000000004 117.546 -7.646000000000004 118.113 -9.694000000000004 L 118.113 -9.694000000000004 L 120.242 -9.770000000000005 C 119.554 -7.177000000000005 118.522 -5.082000000000005 117.144 -3.4850000000000048 C 115.76700000000001 -1.8810000000000047 113.927 -0.7180000000000049 111.625 0.003999999999995119 L 111.625 0.003999999999995119 L 110.996 3.678999999999995 C 110.491 6.531999999999995 109.505 8.711999999999996 108.038 10.218999999999994 C 106.571 11.725999999999994 104.625 12.521999999999995 102.2 12.608999999999995 L 102.2 12.608999999999995 C 100.48100000000001 12.669999999999995 99.09 12.279999999999994 98.025 11.437999999999995 C 96.968 10.594999999999995 96.412 9.413999999999994 96.358 7.894999999999995 L 96.358 7.894999999999995 C 96.299 6.242999999999995 96.93 4.762999999999995 98.25 3.4549999999999947 C 99.571 2.139999999999995 101.598 1.009999999999995 104.333 0.06499999999999462 L 104.333 0.06499999999999462 L 104.845 -2.6850000000000054 C 104.033 -1.7090000000000054 103.139 -0.9660000000000053 102.163 -0.4580000000000055 C 101.17999999999999 0.04399999999999449 100.083 0.3169999999999945 98.86999999999999 0.35999999999999444 L 98.86999999999999 0.35999999999999444 C 97.184 0.41999999999999443 95.84299999999999 -0.06200000000000555 94.84599999999999 -1.0870000000000055 C 93.84799999999998 -2.1190000000000055 93.31499999999998 -3.5940000000000056 93.246 -5.512000000000006 L 93.246 -5.512000000000006 C 93.22999999999999 -5.952000000000006 93.246 -6.449000000000006 93.29299999999999 -7.005000000000006 C 93.33999999999999 -7.567000000000006 93.41799999999999 -8.170000000000005 93.529 -8.815000000000007 L 93.529 -8.815000000000007 L 96.386 -25.177000000000007 L 103.67099999999999 -25.438000000000006 L 100.648 -8.109000000000005 C 100.622 -7.908000000000006 100.59599999999999 -7.697000000000005 100.571 -7.475000000000005 C 100.54599999999999 -7.254000000000005 100.53699999999999 -7.040000000000005 100.544 -6.834000000000005 L 100.544 -6.834000000000005 C 100.569 -6.128000000000005 100.712 -5.586000000000005 100.972 -5.2080000000000055 C 101.23899999999999 -4.831000000000006 101.62599999999999 -4.651000000000005 102.13199999999999 -4.669000000000006 z M 103.666 4.091 L 103.914 2.612 C 102.252 3.319 101.029 4.029 100.247 4.744 C 99.459 5.465999999999999 99.08 6.25 99.111 7.096 L 99.111 7.096 C 99.126 7.529 99.31 7.909 99.662 8.237 C 100.007 8.565 100.41600000000001 8.72 100.88900000000001 8.704 L 100.88900000000001 8.704 C 101.462 8.684000000000001 102.004 8.257000000000001 102.51500000000001 7.425000000000001 C 103.02600000000001 6.6000000000000005 103.41000000000001 5.488 103.66600000000001 4.091000000000001 z M 134.189 -19.871 L 129.792 -0.5350000000000001 L 122.503 -0.6280000000000001 L 129.793 -32.728 L 137.29500000000002 -33.652 L 134.782 -22.444000000000003 L 135.08200000000002 -22.44 C 136.96900000000002 -22.416 138.66600000000003 -23.254 140.175 -24.955000000000002 C 141.68300000000002 -26.656000000000002 142.45100000000002 -28.520000000000003 142.476 -30.546000000000003 L 142.476 -30.546000000000003 C 142.498 -32.233000000000004 141.931 -33.573 140.777 -34.568000000000005 C 139.63 -35.563 137.993 -36.074000000000005 135.867 -36.101000000000006 L 135.867 -36.101000000000006 C 132.321 -36.14600000000001 129.31 -35.05500000000001 126.83399999999999 -32.82600000000001 C 124.359 -30.591000000000008 123.097 -27.637000000000008 123.05099999999999 -23.963000000000008 L 123.05099999999999 -23.963000000000008 C 123.04299999999999 -23.31600000000001 123.079 -22.759000000000007 123.15899999999999 -22.29200000000001 C 123.23299999999999 -21.81800000000001 123.36999999999999 -21.35900000000001 123.57199999999999 -20.916000000000007 L 123.57199999999999 -20.916000000000007 C 123.63699999999999 -20.782000000000007 123.67599999999999 -20.688000000000006 123.68799999999999 -20.63500000000001 C 123.707 -20.58100000000001 123.71699999999998 -20.538000000000007 123.71699999999998 -20.50500000000001 L 123.71699999999998 -20.50500000000001 C 121.89699999999999 -20.52800000000001 120.54599999999998 -20.93500000000001 119.66199999999998 -21.72600000000001 C 118.77199999999998 -22.51100000000001 118.33699999999997 -23.68000000000001 118.35599999999998 -25.23300000000001 L 118.35599999999998 -25.23300000000001 C 118.37899999999998 -27.05300000000001 118.98499999999999 -28.83500000000001 120.17499999999998 -30.58100000000001 C 121.36399999999998 -32.31900000000001 122.99299999999998 -33.83200000000001 125.06299999999999 -35.119000000000014 L 125.06299999999999 -35.119000000000014 C 126.76999999999998 -36.21100000000001 128.648 -37.04000000000001 130.695 -37.60700000000001 C 132.742 -38.174000000000014 134.813 -38.445000000000014 136.906 -38.41800000000001 L 136.906 -38.41800000000001 C 140.21200000000002 -38.37600000000001 142.826 -37.59900000000001 144.747 -36.08700000000001 C 146.668 -34.57600000000001 147.61300000000003 -32.62300000000001 147.58300000000003 -30.23100000000001 L 147.58300000000003 -30.23100000000001 C 147.56300000000002 -28.64400000000001 147.08700000000002 -27.13000000000001 146.15500000000003 -25.689000000000007 C 145.23000000000002 -24.247000000000007 143.98500000000004 -23.10000000000001 142.42000000000002 -22.246000000000006 L 142.42000000000002 -22.246000000000006 C 144.335 -21.848000000000006 145.8 -20.926000000000005 146.81500000000003 -19.480000000000004 C 147.82300000000004 -18.034000000000002 148.31300000000002 -16.214000000000006 148.28600000000003 -14.021000000000004 L 148.28600000000003 -14.021000000000004 C 148.26600000000002 -12.434000000000005 148.00800000000004 -10.768000000000004 147.51200000000003 -9.020000000000003 C 147.02300000000002 -7.266000000000004 146.34600000000003 -5.721000000000004 145.48300000000003 -4.386000000000003 L 145.48300000000003 -4.386000000000003 C 144.44900000000004 -2.7790000000000026 143.21700000000004 -1.5710000000000028 141.78600000000003 -0.7620000000000027 C 140.36200000000002 0.04699999999999738 138.77400000000003 0.4399999999999973 137.02100000000004 0.4169999999999974 L 137.02100000000004 0.4169999999999974 C 135.43400000000005 0.39699999999999736 134.20500000000004 0.06099999999999739 133.33300000000006 -0.5900000000000025 C 132.46800000000005 -1.2410000000000025 132.04300000000006 -2.1770000000000023 132.05900000000005 -3.3970000000000025 L 132.05900000000005 -3.3970000000000025 C 132.06400000000005 -3.7970000000000024 132.12000000000006 -4.243000000000002 132.22600000000006 -4.735000000000003 C 132.33200000000005 -5.220000000000003 132.50600000000006 -5.748000000000003 132.74600000000007 -6.318000000000003 L 132.74600000000007 -6.318000000000003 C 133.37800000000007 -5.6700000000000035 133.95500000000007 -5.199000000000003 134.47800000000007 -4.906000000000003 C 134.99400000000006 -4.613000000000003 135.53900000000007 -4.462000000000003 136.11300000000006 -4.455000000000004 L 136.11300000000006 -4.455000000000004 C 137.63300000000007 -4.4360000000000035 138.86100000000005 -5.297000000000003 139.79600000000005 -7.038000000000004 C 140.73200000000006 -8.780000000000005 141.21600000000004 -10.934000000000005 141.24900000000005 -13.500000000000004 L 141.24900000000005 -13.500000000000004 C 141.27600000000004 -15.626000000000003 140.89000000000004 -17.235000000000003 140.09000000000006 -18.325000000000003 C 139.29700000000005 -19.415000000000003 138.10800000000006 -19.970000000000002 136.52100000000007 -19.991000000000003 L 136.52100000000007 -19.991000000000003 C 136.28100000000006 -19.994000000000003 135.93400000000008 -19.982000000000003 135.48000000000008 -19.954000000000004 C 135.02600000000007 -19.926000000000005 134.5960000000001 -19.899000000000004 134.18900000000008 -19.871000000000006 z M 157.809 -4.253 L 157.809 -4.253 C 158.68699999999998 -4.191 159.498 -4.514 160.243 -5.223 C 160.988 -5.925 161.628 -6.986 162.16299999999998 -8.405999999999999 L 162.16299999999998 -8.405999999999999 L 166.753 -24.371 L 174.01399999999998 -23.857 L 169.16799999999998 -6.946999999999999 C 169.07999999999998 -6.645999999999999 169.01 -6.369999999999999 168.95899999999997 -6.119999999999999 C 168.908 -5.869999999999999 168.87299999999996 -5.610999999999999 168.85399999999998 -5.344999999999999 L 168.85399999999998 -5.344999999999999 C 168.80599999999998 -4.672999999999999 168.932 -4.182999999999999 169.231 -3.874999999999999 C 169.53 -3.565999999999999 170.048 -3.3859999999999992 170.786 -3.333999999999999 L 170.786 -3.333999999999999 C 171.664 -3.2719999999999994 172.482 -3.600999999999999 173.242 -4.3229999999999995 C 174.009 -5.050999999999999 174.658 -6.103999999999999 175.19 -7.483 L 175.19 -7.483 L 177.315 -7.332 C 176.018 -4.308999999999999 174.457 -2.077 172.63 -0.6369999999999996 C 170.804 0.8040000000000005 168.76 1.4450000000000003 166.499 1.2850000000000004 L 166.499 1.2850000000000004 C 165.05599999999998 1.1830000000000003 163.92499999999998 0.6880000000000004 163.106 -0.19899999999999962 C 162.293 -1.0849999999999995 161.87199999999999 -2.308 161.84199999999998 -3.867 L 161.84199999999998 -3.867 C 160.75699999999998 -2.3200000000000003 159.571 -1.194 158.284 -0.4900000000000002 C 156.998 0.21399999999999975 155.57999999999998 0.5109999999999997 154.03 0.4019999999999998 L 154.03 0.4019999999999998 C 152.348 0.2829999999999998 151.065 -0.3390000000000002 150.183 -1.4650000000000003 C 149.301 -2.5970000000000004 148.927 -4.12 149.063 -6.035 L 149.063 -6.035 C 149.094 -6.474 149.16199999999998 -6.9670000000000005 149.268 -7.515000000000001 C 149.374 -8.069 149.516 -8.66 149.694 -9.289000000000001 L 149.694 -9.289000000000001 L 154.274 -25.255000000000003 L 161.546 -24.740000000000002 L 156.69899999999998 -7.830000000000002 C 156.61299999999997 -7.562000000000002 156.553 -7.322000000000002 156.51799999999997 -7.1110000000000015 C 156.48899999999998 -6.892000000000001 156.46599999999998 -6.6640000000000015 156.44899999999998 -6.425000000000002 L 156.44899999999998 -6.425000000000002 C 156.40099999999998 -5.753000000000002 156.48799999999997 -5.233000000000001 156.70899999999997 -4.862000000000002 C 156.93699999999998 -4.492000000000002 157.30299999999997 -4.2890000000000015 157.80899999999997 -4.253000000000002 z M 181.665 -6.246 L 181.665 -6.246 C 181.50799999999998 -4.942 181.576 -3.9400000000000004 181.868 -3.2410000000000005 C 182.161 -2.5480000000000005 182.774 -2.1450000000000005 183.707 -2.0330000000000004 L 183.707 -2.0330000000000004 C 184.548 -1.9320000000000004 185.41899999999998 -2.2270000000000003 186.321 -2.918 C 187.216 -3.6100000000000003 187.889 -4.539 188.338 -5.707000000000001 L 188.338 -5.707000000000001 L 188.368 -5.956 L 192.21099999999998 -17.167 C 192.16899999999998 -17.716 191.992 -18.17 191.67999999999998 -18.53 C 191.36799999999997 -18.896 190.92799999999997 -19.114 190.35799999999998 -19.183 L 190.35799999999998 -19.183 C 188.51799999999997 -19.404 186.70099999999996 -18.057 184.908 -15.143 C 183.10799999999998 -12.23 182.027 -9.264000000000001 181.665 -6.246 z M 192.936 -19.427 L 192.936 -19.427 L 192.912 -19.229 L 196.761 -30.49 L 204.31799999999998 -30.599999999999998 L 195.283 -4.158999999999999 C 195.17999999999998 -3.8619999999999988 195.09699999999998 -3.589999999999999 195.034 -3.342999999999999 C 194.971 -3.094999999999999 194.923 -2.838999999999999 194.891 -2.573999999999999 L 194.891 -2.573999999999999 C 194.81099999999998 -1.904999999999999 194.91199999999998 -1.409999999999999 195.196 -1.0869999999999989 C 195.48 -0.7639999999999989 195.992 -0.5579999999999988 196.733 -0.46999999999999886 L 196.733 -0.46999999999999886 C 197.6 -0.3659999999999989 198.431 -0.6559999999999988 199.225 -1.3389999999999989 C 200.02599999999998 -2.0279999999999987 200.72899999999998 -3.0489999999999986 201.335 -4.398999999999999 L 201.335 -4.398999999999999 L 203.43900000000002 -4.146999999999999 C 202.04200000000003 -1.2929999999999993 200.42600000000002 0.7890000000000006 198.59000000000003 2.1000000000000005 C 196.74700000000004 3.4100000000000006 194.63800000000003 3.9220000000000006 192.26200000000003 3.6370000000000005 L 192.26200000000003 3.6370000000000005 C 190.88500000000002 3.4720000000000004 189.81500000000003 2.9610000000000003 189.05200000000002 2.1030000000000006 C 188.28900000000002 1.2460000000000007 187.89000000000001 0.12000000000000055 187.85600000000002 -1.2729999999999992 L 187.85600000000002 -1.2729999999999992 C 186.66500000000002 0.1480000000000008 185.401 1.1680000000000006 184.06400000000002 1.7870000000000008 C 182.734 2.4060000000000006 181.33100000000002 2.6270000000000007 179.85500000000002 2.450000000000001 L 179.85500000000002 2.450000000000001 C 177.78300000000002 2.201000000000001 176.23600000000002 1.3040000000000012 175.21300000000002 -0.242999999999999 C 174.19100000000003 -1.795999999999999 173.83500000000004 -3.862999999999999 174.14400000000003 -6.443999999999999 L 174.14400000000003 -6.443999999999999 C 174.36900000000003 -8.316999999999998 174.88900000000004 -10.241999999999999 175.70400000000004 -12.219 C 176.51900000000003 -14.196 177.53000000000003 -15.960999999999999 178.73700000000002 -17.516 L 178.73700000000002 -17.516 C 180.21200000000002 -19.34 181.836 -20.683 183.61100000000002 -21.543 C 185.37900000000002 -22.398 187.233 -22.71 189.17200000000003 -22.477 L 189.17200000000003 -22.477 C 190.48300000000003 -22.32 191.46200000000002 -21.974 192.11 -21.44 C 192.758 -20.906000000000002 193.03300000000002 -20.235 192.936 -19.427 z M 207.729 -2.854 L 207.729 -2.854 C 207.508 -1.5590000000000002 207.526 -0.5550000000000002 207.78400000000002 0.15799999999999992 C 208.04200000000003 0.8649999999999999 208.63500000000002 1.297 209.561 1.4549999999999998 L 209.561 1.4549999999999998 C 210.39600000000002 1.5969999999999998 211.28 1.3459999999999999 212.215 0.6999999999999998 C 213.144 0.053999999999999826 213.861 -0.8420000000000002 214.368 -1.9860000000000002 L 214.368 -1.9860000000000002 L 214.41 -2.233 L 218.803 -13.241 C 218.789 -13.791 218.634 -14.254 218.339 -14.628 C 218.046 -15.009 217.61599999999999 -15.248 217.051 -15.345 L 217.051 -15.345 C 215.224 -15.657 213.343 -14.402000000000001 211.408 -11.58 C 209.46599999999998 -8.76 208.23999999999998 -5.851 207.72899999999998 -2.853999999999999 z M 219.638 -15.462 L 219.638 -15.462 L 219.604 -15.265 L 224.006 -26.322000000000003 L 231.559 -26.059 L 221.228 -0.09600000000000009 C 221.11100000000002 0.1949999999999999 221.014 0.46299999999999997 220.93900000000002 0.707 C 220.86400000000003 0.951 220.80300000000003 1.205 220.758 1.467 L 220.758 1.467 C 220.645 2.1310000000000002 220.722 2.6310000000000002 220.989 2.967 C 221.256 3.303 221.758 3.534 222.494 3.66 L 222.494 3.66 C 223.355 3.807 224.199 3.5580000000000003 225.025 2.915 C 225.859 2.266 226.612 1.282 227.284 -0.03699999999999992 L 227.284 -0.03699999999999992 L 229.374 0.31900000000000006 C 227.838 3.1 226.12099999999998 5.1 224.222 6.319 C 222.317 7.536 220.185 7.943 217.82500000000002 7.541 L 217.82500000000002 7.541 C 216.45800000000003 7.308000000000001 215.41500000000002 6.744000000000001 214.69500000000002 5.8500000000000005 C 213.97500000000002 4.956 213.63200000000003 3.8120000000000007 213.66700000000003 2.4190000000000005 L 213.66700000000003 2.4190000000000005 C 212.40700000000004 3.7800000000000002 211.09400000000002 4.736000000000001 209.72900000000004 5.288 C 208.37000000000003 5.841 206.95800000000006 5.992 205.49200000000005 5.742 L 205.49200000000005 5.742 C 203.43500000000006 5.391 201.93400000000005 4.418 200.98900000000003 2.823 C 200.04500000000004 1.2209999999999999 199.79100000000003 -0.8610000000000002 200.22800000000004 -3.4230000000000005 L 200.22800000000004 -3.4230000000000005 C 200.54500000000004 -5.283 201.15900000000005 -7.180000000000001 202.07100000000003 -9.115 C 202.98200000000003 -11.049 204.07900000000004 -12.763 205.36200000000002 -14.254999999999999 L 205.36200000000002 -14.254999999999999 C 206.925 -16.003999999999998 208.61400000000003 -17.264 210.43000000000004 -18.035999999999998 C 212.23800000000003 -18.802999999999997 214.10500000000005 -19.022 216.03000000000003 -18.694 L 216.03000000000003 -18.694 C 217.33100000000002 -18.471999999999998 218.29200000000003 -18.078 218.91200000000003 -17.512999999999998 C 219.53200000000004 -16.947 219.77400000000003 -16.264 219.63800000000003 -15.461999999999998 z M 234.346 6.006 L 234.346 6.006 C 235.173 6.188000000000001 235.991 6.006 236.8 5.46 C 237.609 4.914 238.37400000000002 4.0280000000000005 239.09400000000002 2.801 L 239.09400000000002 2.801 L 246.11300000000003 -12.602 L 253.22300000000004 -11.040000000000001 L 243.28900000000004 10.827999999999998 C 245.06700000000004 10.596999999999998 246.54500000000004 10.048999999999998 247.72600000000006 9.180999999999997 C 248.89800000000005 8.318999999999997 250.01400000000007 6.966999999999997 251.07400000000007 5.124999999999997 L 251.07400000000007 5.124999999999997 L 253.15500000000006 5.5829999999999975 C 251.84200000000007 7.922999999999997 250.32000000000005 9.693999999999997 248.58800000000005 10.895999999999997 C 246.85500000000005 12.105999999999998 244.78300000000004 12.772999999999998 242.37400000000005 12.899999999999997 L 242.37400000000005 12.899999999999997 L 240.84800000000004 16.300999999999995 C 239.64700000000005 18.937999999999995 238.14900000000003 20.802999999999994 236.35300000000004 21.896999999999995 C 234.55700000000004 22.989999999999995 232.47300000000004 23.276999999999994 230.10300000000004 22.755999999999993 L 230.10300000000004 22.755999999999993 C 228.42300000000003 22.386999999999993 227.17300000000003 21.661999999999992 226.35200000000003 20.580999999999992 C 225.53800000000004 19.50099999999999 225.29400000000004 18.218999999999994 225.62000000000003 16.73399999999999 L 225.62000000000003 16.73399999999999 C 225.97500000000002 15.118999999999991 226.95500000000004 13.842999999999991 228.56000000000003 12.905999999999992 C 230.16700000000003 11.961999999999993 232.41200000000003 11.373999999999992 235.29600000000002 11.139999999999992 L 235.29600000000002 11.139999999999992 L 236.478 8.603999999999992 C 235.448 9.346999999999992 234.39700000000002 9.842999999999993 233.32500000000002 10.092999999999993 C 232.24800000000002 10.333999999999993 231.11700000000002 10.324999999999992 229.93200000000002 10.063999999999993 L 229.93200000000002 10.063999999999993 C 228.28500000000003 9.701999999999993 227.10600000000002 8.899999999999993 226.39600000000002 7.658999999999994 C 225.687 6.410999999999993 225.53900000000002 4.849999999999993 225.95100000000002 2.973999999999994 L 225.95100000000002 2.973999999999994 C 226.04500000000002 2.543999999999994 226.18500000000003 2.065999999999994 226.36800000000002 1.539999999999994 C 226.55300000000003 1.006999999999994 226.78000000000003 0.44299999999999407 227.04700000000003 -0.15300000000000602 L 227.04700000000003 -0.15300000000000602 L 233.89400000000003 -15.287000000000006 L 241.01400000000004 -13.722000000000007 L 233.76600000000005 2.305999999999992 C 233.69100000000006 2.4939999999999922 233.61300000000006 2.691999999999992 233.53300000000004 2.899999999999992 C 233.45300000000003 3.107999999999992 233.39100000000005 3.3129999999999917 233.34700000000004 3.513999999999992 L 233.34700000000004 3.513999999999992 C 233.19500000000005 4.203999999999992 233.19900000000004 4.764999999999992 233.35700000000003 5.194999999999991 C 233.52100000000002 5.626999999999992 233.85100000000003 5.896999999999991 234.34600000000003 6.005999999999991 z M 233.647 14.873 L 234.255 13.501999999999999 C 232.469 13.771999999999998 231.108 14.155 230.173 14.652 C 229.23 15.155 228.667 15.818999999999999 228.486 16.647 L 228.486 16.647 C 228.393 17.069999999999997 228.476 17.483999999999998 228.73499999999999 17.889 C 228.98799999999997 18.293 229.345 18.544999999999998 229.808 18.647 L 229.808 18.647 C 230.368 18.77 230.999 18.491999999999997 231.7 17.814 C 232.40099999999998 17.142 233.04899999999998 16.162 233.647 14.873000000000001 z" stroke-linecap="round" />
</g>
		<g transform="matrix(1.26 0 0 1.26 0.03 616.31)" id="text-1"  >
<path style="stroke: none; stroke-width: 1; stroke-dasharray: none; stroke-linecap: butt; stroke-dashoffset: 0; stroke-linejoin: miter; stroke-miterlimit: 4; fill: rgb(224,159,5); fill-rule: nonzero; opacity: 1;" vector-effect="non-scaling-stroke"  transform=" translate(-242.63, 10.95)" d="M 26.2 0 L 9.6 0 Q 6.2 0 4.6 -0.3 Q 3 -0.6 3 -1 L 3 -1 L 5 -5.35 Q 6.15 -5.15 10.73 -4.98 Q 15.3 -4.8 23.3 -4.8 L 23.3 -4.8 L 24.25 -4.8 Q 26.4 -4.8 27.3 -5.58 Q 28.2 -6.35 28.2 -8.2 L 28.2 -8.2 L 28.2 -9.2 Q 28.2 -10.95 27.48 -11.7 Q 26.75 -12.45 24.25 -12.45 L 24.25 -12.45 L 12.65 -12.45 Q 7.6 -12.45 5.3 -14.33 Q 3 -16.2 3 -20.45 L 3 -20.45 L 3 -21.25 Q 3 -23.45 3.83 -25.3 Q 4.65 -27.15 6.65 -28.28 Q 8.65 -29.4 12.15 -29.4 L 12.15 -29.4 L 25.75 -29.4 Q 29.15 -29.4 31.25 -29.05 Q 33.35 -28.7 33.35 -28.3 L 33.35 -28.3 L 32.35 -24.1 Q 31.05 -24.25 26.45 -24.43 Q 21.85 -24.6 14.1 -24.6 L 14.1 -24.6 L 13.55 -24.65 Q 11.25 -24.65 10.45 -23.73 Q 9.65 -22.8 9.6 -21.4 L 9.6 -21.4 L 9.6 -20.55 Q 9.6 -18.9 10.53 -18.07 Q 11.45 -17.25 13.6 -17.25 L 13.6 -17.25 L 24.7 -17.25 Q 27.9 -17.25 30.15 -16.6 Q 32.4 -15.95 33.6 -14.23 Q 34.8 -12.5 34.8 -9.15 L 34.8 -9.15 L 34.8 -8.35 Q 34.8 -4.6 32.88 -2.3 Q 30.95 0 26.2 0 L 26.2 0 Z M 49.05 0 L 47.5 0 Q 43.7 0 42.3 -1.6 Q 40.9 -3.2 40.9 -6.4 L 40.9 -6.4 L 40.9 -18.1 L 36.8 -18.1 L 36.8 -22.4 L 38.9 -22.4 Q 39.85 -22.4 40.27 -22.7 Q 40.7 -23 40.9 -23.9 L 40.9 -23.9 L 41.9 -29.25 L 47 -29.25 L 47 -22.4 L 57.4 -22.4 L 57.4 -18.1 L 47 -18.1 L 47 -6.35 Q 47 -5.1 47.6 -4.7 Q 48.2 -4.3 49.4 -4.3 L 49.4 -4.3 L 56.45 -4.3 L 56.95 -0.5 Q 55.9 -0.35 53.75 -0.18 Q 51.6 0 49.05 0 L 49.05 0 Z M 70.55 0 L 68 0 Q 65.55 0 64.17 -0.65 Q 62.8 -1.3 62.22 -2.3 Q 61.65 -3.3 61.52 -4.4 Q 61.4 -5.5 61.4 -6.4 L 61.4 -6.4 L 61.4 -22.4 L 67.5 -22.4 L 67.5 -6.3 Q 67.45 -5.2 68.22 -4.75 Q 69 -4.3 69.9 -4.3 L 69.9 -4.3 L 79.8 -4.3 Q 80.9 -4.3 81.1 -4.5 Q 81.3 -4.7 81.3 -5.8 L 81.3 -5.8 L 81.3 -22.4 L 87.4 -22.4 L 87.4 0 L 83.3 0 L 81.4 -1 Q 79.4 -0.6 76.67 -0.3 Q 73.95 0 70.55 0 L 70.55 0 Z M 101.99 0 L 99.49 0 Q 96.99 0 95.64 -0.65 Q 94.29 -1.3 93.72 -2.3 Q 93.14 -3.3 93.02 -4.4 Q 92.89 -5.5 92.89 -6.4 L 92.89 -6.4 L 92.89 -16 Q 92.89 -16.75 93.02 -17.82 Q 93.14 -18.9 93.72 -19.95 Q 94.29 -21 95.67 -21.7 Q 97.04 -22.4 99.49 -22.4 L 99.49 -22.4 L 102.04 -22.4 Q 106.64 -22.4 109.47 -22.23 Q 112.29 -22.05 113.79 -21.85 L 113.79 -21.85 L 113.79 -31.7 L 119.89 -31.7 L 119.89 0 L 115.79 0 L 113.84 -1 Q 111.74 -0.65 108.79 -0.33 Q 105.84 0 101.99 0 L 101.99 0 Z M 101.39 -4.3 L 101.39 -4.3 L 112.24 -4.3 Q 113.29 -4.3 113.54 -4.55 Q 113.79 -4.8 113.79 -5.8 L 113.79 -5.8 L 113.79 -17.75 Q 112.09 -17.85 109.49 -17.98 Q 106.89 -18.1 103.94 -18.1 L 103.94 -18.1 L 101.39 -18.1 Q 98.99 -18.1 98.99 -16.1 L 98.99 -16.1 L 98.99 -6.3 Q 98.99 -4.3 101.39 -4.3 Z M 129.84 9.8 L 128.49 9.8 Q 126.09 9.8 124.09 9.25 Q 122.09 8.7 121.39 8.25 L 121.39 8.25 L 122.89 3.75 Q 123.74 4.1 125.32 4.58 Q 126.89 5.05 128.89 5.05 L 128.89 5.05 L 129.44 5.05 Q 131.74 5.05 133.52 3.68 Q 135.29 2.3 136.24 0 L 136.24 0 L 133.74 0 L 123.94 -22.4 L 130.94 -22.4 L 136.69 -8.6 L 137.99 -5 L 138.49 -5 L 139.79 -8.6 L 145.64 -22.4 L 152.44 -22.4 L 151.64 -19.35 Q 150.69 -17.4 149.47 -14.88 Q 148.24 -12.35 146.94 -9.65 Q 145.64 -6.95 144.42 -4.45 Q 143.19 -1.95 142.24 0 L 142.24 0 Q 140.79 3 139.07 5.2 Q 137.34 7.4 135.12 8.6 Q 132.89 9.8 129.84 9.8 L 129.84 9.8 Z M 190.14 0 L 173.54 0 Q 170.14 0 168.54 -0.3 Q 166.94 -0.6 166.94 -1 L 166.94 -1 L 168.94 -5.35 Q 170.09 -5.15 174.66 -4.98 Q 179.24 -4.8 187.24 -4.8 L 187.24 -4.8 L 188.19 -4.8 Q 190.34 -4.8 191.24 -5.58 Q 192.14 -6.35 192.14 -8.2 L 192.14 -8.2 L 192.14 -9.2 Q 192.14 -10.95 191.41 -11.7 Q 190.69 -12.45 188.19 -12.45 L 188.19 -12.45 L 176.59 -12.45 Q 171.54 -12.45 169.24 -14.33 Q 166.94 -16.2 166.94 -20.45 L 166.94 -20.45 L 166.94 -21.25 Q 166.94 -23.45 167.76 -25.3 Q 168.59 -27.15 170.59 -28.28 Q 172.59 -29.4 176.09 -29.4 L 176.09 -29.4 L 189.69 -29.4 Q 193.09 -29.4 195.19 -29.05 Q 197.29 -28.7 197.29 -28.3 L 197.29 -28.3 L 196.29 -24.1 Q 194.99 -24.25 190.39 -24.43 Q 185.79 -24.6 178.04 -24.6 L 178.04 -24.6 L 177.49 -24.65 Q 175.19 -24.65 174.39 -23.73 Q 173.59 -22.8 173.54 -21.4 L 173.54 -21.4 L 173.54 -20.55 Q 173.54 -18.9 174.46 -18.07 Q 175.39 -17.25 177.54 -17.25 L 177.54 -17.25 L 188.64 -17.25 Q 191.84 -17.25 194.09 -16.6 Q 196.34 -15.95 197.54 -14.23 Q 198.74 -12.5 198.74 -9.15 L 198.74 -9.15 L 198.74 -8.35 Q 198.74 -4.6 196.81 -2.3 Q 194.89 0 190.14 0 L 190.14 0 Z M 212.98 0 L 211.43 0 Q 207.63 0 206.23 -1.6 Q 204.83 -3.2 204.83 -6.4 L 204.83 -6.4 L 204.83 -18.1 L 200.73 -18.1 L 200.73 -22.4 L 202.83 -22.4 Q 203.78 -22.4 204.21 -22.7 Q 204.63 -23 204.83 -23.9 L 204.83 -23.9 L 205.83 -29.25 L 210.93 -29.25 L 210.93 -22.4 L 221.33 -22.4 L 221.33 -18.1 L 210.93 -18.1 L 210.93 -6.35 Q 210.93 -5.1 211.53 -4.7 Q 212.13 -4.3 213.33 -4.3 L 213.33 -4.3 L 220.38 -4.3 L 220.88 -0.5 Q 219.83 -0.35 217.68 -0.18 Q 215.53 0 212.98 0 L 212.98 0 Z M 234.28 0 L 231.78 0 Q 227.98 0 226.28 -1.78 Q 224.58 -3.55 224.58 -6.65 L 224.58 -6.65 Q 224.58 -9.9 226.36 -11.65 Q 228.13 -13.4 231.78 -13.4 L 231.78 -13.4 L 234.33 -13.4 Q 238.08 -13.4 241.08 -13.2 Q 244.08 -13 246.03 -12.8 L 246.03 -12.8 L 246.03 -16.1 Q 246.03 -16.55 245.93 -17.03 Q 245.83 -17.5 245.33 -17.8 Q 244.83 -18.1 243.63 -18.1 L 243.63 -18.1 L 241.13 -18.1 Q 235.68 -18.1 232.03 -17.93 Q 228.38 -17.75 227.08 -17.6 L 227.08 -17.6 L 226.53 -21.4 Q 226.53 -22.1 230.33 -22.25 Q 234.13 -22.4 243.03 -22.4 L 243.03 -22.4 L 245.53 -22.4 Q 248.03 -22.4 249.38 -21.7 Q 250.73 -21 251.31 -19.95 Q 251.88 -18.9 252.01 -17.82 Q 252.13 -16.75 252.13 -16 L 252.13 -16 L 252.13 0 L 248.03 0 L 246.08 -1 Q 243.98 -0.65 241.03 -0.33 Q 238.08 0 234.28 0 L 234.28 0 Z M 233.08 -4.3 L 233.08 -4.3 L 244.53 -4.3 Q 245.63 -4.3 245.83 -4.5 Q 246.03 -4.7 246.03 -5.75 L 246.03 -5.75 L 246.03 -9.6 L 233.08 -9.6 Q 231.73 -9.6 231.21 -8.95 Q 230.68 -8.3 230.68 -6.9 L 230.68 -6.9 Q 230.68 -5.5 231.28 -4.9 Q 231.88 -4.3 233.08 -4.3 Z M 263.98 0 L 257.88 0 L 257.88 -22.4 L 261.98 -22.4 L 263.88 -21.4 Q 265.18 -22.1 266.68 -22.5 Q 268.18 -22.9 270.48 -22.9 L 270.48 -22.9 Q 274.13 -22.9 276.4 -22.1 Q 278.68 -21.3 279.43 -20.9 L 279.43 -20.9 L 277.68 -16.55 Q 277.08 -16.85 275.7 -17.32 Q 274.33 -17.8 272.48 -18.2 Q 270.63 -18.6 268.43 -18.6 L 268.43 -18.6 L 267.88 -18.6 Q 265.48 -18.6 264.75 -17.65 Q 264.03 -16.7 263.98 -14.5 L 263.98 -14.5 L 263.98 0 Z M 293.18 0 L 291.63 0 Q 287.83 0 286.43 -1.6 Q 285.03 -3.2 285.03 -6.4 L 285.03 -6.4 L 285.03 -18.1 L 280.93 -18.1 L 280.93 -22.4 L 283.03 -22.4 Q 283.98 -22.4 284.4 -22.7 Q 284.83 -23 285.03 -23.9 L 285.03 -23.9 L 286.03 -29.25 L 291.13 -29.25 L 291.13 -22.4 L 301.53 -22.4 L 301.53 -18.1 L 291.13 -18.1 L 291.13 -6.35 Q 291.13 -5.1 291.73 -4.7 Q 292.33 -4.3 293.53 -4.3 L 293.53 -4.3 L 300.58 -4.3 L 301.08 -0.5 Q 300.03 -0.35 297.88 -0.18 Q 295.73 0 293.18 0 L 293.18 0 Z M 325.32 0 L 311.17 0 Q 307.82 0 306.42 -0.35 Q 305.02 -0.7 305.02 -1.05 L 305.02 -1.05 L 306.52 -4.8 Q 307.97 -4.65 311.85 -4.48 Q 315.72 -4.3 321.42 -4.3 L 321.42 -4.3 L 323.92 -4.3 Q 325.17 -4.3 325.5 -4.98 Q 325.82 -5.65 325.82 -6.8 L 325.82 -6.8 Q 325.82 -7.95 325.45 -8.65 Q 325.07 -9.35 323.92 -9.35 L 323.92 -9.35 L 311.62 -9.35 Q 308.12 -9.35 306.57 -10.68 Q 305.02 -12 305.02 -14.65 L 305.02 -14.65 L 305.02 -16.65 Q 305.02 -17.35 305.17 -18.3 Q 305.32 -19.25 305.92 -20.2 Q 306.52 -21.15 307.87 -21.78 Q 309.22 -22.4 311.62 -22.4 L 311.62 -22.4 L 325.42 -22.4 Q 328.42 -22.4 329.67 -22.05 Q 330.92 -21.7 330.92 -21.35 L 330.92 -21.35 L 330.42 -17.6 Q 328.97 -17.75 325.07 -17.93 Q 321.17 -18.1 315.52 -18.1 L 315.52 -18.1 L 313.02 -18.1 Q 311.77 -18.1 311.45 -17.43 Q 311.12 -16.75 311.12 -15.85 L 311.12 -15.85 Q 311.12 -14.9 311.45 -14.28 Q 311.77 -13.65 313.02 -13.65 L 313.02 -13.65 L 325.32 -13.65 Q 328.72 -13.65 330.32 -12.25 Q 331.92 -10.85 331.92 -8.7 L 331.92 -8.7 L 331.92 -5.75 Q 331.92 -4.85 331.8 -3.85 Q 331.67 -2.85 331.07 -1.98 Q 330.47 -1.1 329.12 -0.55 Q 327.77 0 325.32 0 L 325.32 0 Z M 367.02 0 L 360.42 0 L 360.42 -29.4 L 367.02 -29.4 L 367.02 -17.2 L 386.62 -17.2 L 386.62 -29.4 L 393.22 -29.4 L 393.22 0 L 386.62 0 L 386.62 -12.4 L 367.02 -12.4 L 367.02 0 Z M 416.36 0 L 406.31 0 Q 403.81 0 402.46 -0.65 Q 401.11 -1.3 400.54 -2.3 Q 399.96 -3.3 399.84 -4.4 Q 399.71 -5.5 399.71 -6.4 L 399.71 -6.4 L 399.71 -16 Q 399.71 -16.75 399.84 -17.82 Q 399.96 -18.9 400.54 -19.95 Q 401.11 -21 402.49 -21.7 Q 403.86 -22.4 406.31 -22.4 L 406.31 -22.4 L 417.06 -22.4 Q 420.36 -22.4 422.24 -21.78 Q 424.11 -21.15 424.89 -19.75 Q 425.66 -18.35 425.66 -16 L 425.66 -16 L 425.66 -8.6 L 416.91 -8.6 Q 412.41 -8.6 409.59 -8.8 Q 406.76 -9 405.81 -9.05 L 405.81 -9.05 L 405.81 -6.3 Q 405.76 -4.3 408.21 -4.3 L 408.21 -4.3 L 410.76 -4.3 Q 413.46 -4.3 416.04 -4.38 Q 418.61 -4.45 420.76 -4.58 Q 422.91 -4.7 424.21 -4.8 L 424.21 -4.8 L 426.21 -1.55 Q 426.21 0 416.36 0 L 416.36 0 Z M 405.81 -16.1 L 405.81 -12.9 L 419.56 -12.9 L 419.56 -16.1 Q 419.56 -17.1 419.34 -17.5 Q 419.11 -17.9 418.01 -18 Q 416.91 -18.1 414.26 -18.1 L 414.26 -18.1 L 408.21 -18.1 Q 405.81 -18.1 405.81 -16.1 L 405.81 -16.1 Z M 437.31 0 L 431.21 0 L 431.21 -22.4 L 435.31 -22.4 L 437.21 -21.4 Q 438.51 -22.1 440.01 -22.5 Q 441.51 -22.9 443.81 -22.9 L 443.81 -22.9 Q 447.46 -22.9 449.74 -22.1 Q 452.01 -21.3 452.76 -20.9 L 452.76 -20.9 L 451.01 -16.55 Q 450.41 -16.85 449.04 -17.32 Q 447.66 -17.8 445.81 -18.2 Q 443.96 -18.6 441.76 -18.6 L 441.76 -18.6 L 441.21 -18.6 Q 438.81 -18.6 438.09 -17.65 Q 437.36 -16.7 437.31 -14.5 L 437.31 -14.5 L 437.31 0 Z M 472.41 0 L 462.36 0 Q 459.86 0 458.51 -0.65 Q 457.16 -1.3 456.58 -2.3 Q 456.01 -3.3 455.88 -4.4 Q 455.76 -5.5 455.76 -6.4 L 455.76 -6.4 L 455.76 -16 Q 455.76 -16.75 455.88 -17.82 Q 456.01 -18.9 456.58 -19.95 Q 457.16 -21 458.53 -21.7 Q 459.91 -22.4 462.36 -22.4 L 462.36 -22.4 L 473.11 -22.4 Q 476.41 -22.4 478.28 -21.78 Q 480.16 -21.15 480.93 -19.75 Q 481.71 -18.35 481.71 -16 L 481.71 -16 L 481.71 -8.6 L 472.96 -8.6 Q 468.46 -8.6 465.63 -8.8 Q 462.81 -9 461.86 -9.05 L 461.86 -9.05 L 461.86 -6.3 Q 461.81 -4.3 464.26 -4.3 L 464.26 -4.3 L 466.81 -4.3 Q 469.51 -4.3 472.08 -4.38 Q 474.66 -4.45 476.81 -4.58 Q 478.96 -4.7 480.26 -4.8 L 480.26 -4.8 L 482.26 -1.55 Q 482.26 0 472.41 0 L 472.41 0 Z M 461.86 -16.1 L 461.86 -12.9 L 475.61 -12.9 L 475.61 -16.1 Q 475.61 -17.1 475.38 -17.5 Q 475.16 -17.9 474.06 -18 Q 472.96 -18.1 470.31 -18.1 L 470.31 -18.1 L 464.26 -18.1 Q 461.86 -18.1 461.86 -16.1 L 461.86 -16.1 Z" stroke-linecap="round" />
</g>
		<g transform="matrix(2.1 0 0 2.1 -347.89 -88.34)"  >
<circle style="stroke: none; stroke-width: 1; stroke-dasharray: none; stroke-linecap: butt; stroke-dashoffset: 0; stroke-linejoin: miter; stroke-miterlimit: 4; fill: rgb(214,53,14); fill-rule: nonzero; opacity: 1;" vector-effect="non-scaling-stroke"  cx="0" cy="0" r="7.3" />
</g>
		<g transform="matrix(2.1 0 0 2.1 -290.34 -88.34)"  >
<circle style="stroke: none; stroke-width: 1; stroke-dasharray: none; stroke-linecap: butt; stroke-dashoffset: 0; stroke-linejoin: miter; stroke-miterlimit: 4; fill: rgb(214,53,14); fill-rule: nonzero; opacity: 1;" vector-effect="non-scaling-stroke"  cx="0" cy="0" r="7.3" />
</g>
		<g transform="matrix(2.1 0 0 2.1 -447.45 -52.43)"  >
<path style="stroke: none; stroke-width: 1; stroke-dasharray: none; stroke-linecap: butt; stroke-dashoffset: 0; stroke-linejoin: miter; stroke-miterlimit: 4; fill: rgb(214,53,14); fill-rule: nonzero; opacity: 1;" vector-effect="non-scaling-stroke"  transform=" translate(343.32, -290.79)" d="M -341.76 292.038 C -341.76 290.062 -341.36 288.25600000000003 -340.642 286.696 L -341.904 286.696 C -344.165 286.696 -346 288.52900000000005 -346 290.79200000000003 C -346 293.055 -344.165 294.891 -341.904 294.891 L -341.76 294.891 L -341.76 292.038 z" stroke-linecap="round" />
</g>
		<g transform="matrix(2.1 0 0 2.1 -405.6 -88.34)"  >
<circle style="stroke: none; stroke-width: 1; stroke-dasharray: none; stroke-linecap: butt; stroke-dashoffset: 0; stroke-linejoin: miter; stroke-miterlimit: 4; fill: rgb(214,53,14); fill-rule: nonzero; opacity: 1;" vector-effect="non-scaling-stroke"  cx="0" cy="0" r="7.3" />
</g>
		<g transform="matrix(2.1 0 0 2.1 -405.6 7.5)"  >
<path style="stroke: none; stroke-width: 1; stroke-dasharray: none; stroke-linecap: butt; stroke-dashoffset: 0; stroke-linejoin: miter; stroke-miterlimit: 4; fill: rgb(214,53,14); fill-rule: nonzero; opacity: 1;" vector-effect="non-scaling-stroke"  transform=" translate(323.43, -319.28)" d="M -332.508 351.904 C -332.508 354.164 -330.673 356 -328.40999999999997 356 C -326.145 356 -324.311 354.164 -324.311 351.904 L -324.30699999999996 317.526 L -322.48299999999995 317.526 L -322.49499999999995 351.904 C -322.49499999999995 354.164 -320.65999999999997 356 -318.39599999999996 356 C -316.13399999999996 356 -314.29999999999995 354.164 -314.29999999999995 351.904 L -314.282 292.63599999999997 L -312.483 292.63599999999997 L -312.483 314.477 C -312.483 318.86999999999995 -306.752 318.86999999999995 -306.764 314.477 L -306.764 292.17 C -306.764 287.315 -309.618 282.558 -315.297 282.558 L -331.68 282.552 C -336.855 282.552 -340.098 286.77200000000005 -340.098 292.03700000000003 L -340.098 314.47700000000003 C -340.098 318.83900000000006 -334.334 318.83900000000006 -334.334 314.47700000000003 L -334.334 292.636 L -332.499 292.636 L -332.508 351.904 z" stroke-linecap="round" />
</g>
		<g transform="matrix(2.1 0 0 2.1 -405.6 -88.34)"  >
<circle style="stroke: none; stroke-width: 1; stroke-dasharray: none; stroke-linecap: butt; stroke-dashoffset: 0; stroke-linejoin: miter; stroke-miterlimit: 4; fill: rgb(214,53,14); fill-rule: nonzero; opacity: 1;" vector-effect="non-scaling-stroke"  cx="0" cy="0" r="7.3" />
</g>
		<g transform="matrix(2.1 0 0 2.1 -405.6 7.5)"  >
<path style="stroke: none; stroke-width: 1; stroke-dasharray: none; stroke-linecap: butt; stroke-dashoffset: 0; stroke-linejoin: miter; stroke-miterlimit: 4; fill: rgb(214,53,14); fill-rule: nonzero; opacity: 1;" vector-effect="non-scaling-stroke"  transform=" translate(323.43, -319.28)" d="M -332.508 351.904 C -332.508 354.164 -330.673 356 -328.40999999999997 356 C -326.145 356 -324.311 354.164 -324.311 351.904 L -324.30699999999996 317.526 L -322.48299999999995 317.526 L -322.49499999999995 351.904 C -322.49499999999995 354.164 -320.65999999999997 356 -318.39599999999996 356 C -316.13399999999996 356 -314.29999999999995 354.164 -314.29999999999995 351.904 L -314.282 292.63599999999997 L -312.483 292.63599999999997 L -312.483 314.477 C -312.483 318.86999999999995 -306.752 318.86999999999995 -306.764 314.477 L -306.764 292.17 C -306.764 287.315 -309.618 282.558 -315.297 282.558 L -331.68 282.552 C -336.855 282.552 -340.098 286.77200000000005 -340.098 292.03700000000003 L -340.098 314.47700000000003 C -340.098 318.83900000000006 -334.334 318.83900000000006 -334.334 314.47700000000003 L -334.334 292.636 L -332.499 292.636 L -332.508 351.904 z" stroke-linecap="round" />
</g>
		<g transform="matrix(2.1 0 0 2.1 -405.6 7.5)"  >
<path style="stroke: none; stroke-width: 1; stroke-dasharray: none; stroke-linecap: butt; stroke-dashoffset: 0; stroke-linejoin: miter; stroke-miterlimit: 4; fill: rgb(214,53,14); fill-rule: nonzero; opacity: 1;" vector-effect="non-scaling-stroke"  transform=" translate(323.43, -319.28)" d="M -332.508 351.904 C -332.508 354.164 -330.673 356 -328.40999999999997 356 C -326.145 356 -324.311 354.164 -324.311 351.904 L -324.30699999999996 317.526 L -322.48299999999995 317.526 L -322.49499999999995 351.904 C -322.49499999999995 354.164 -320.65999999999997 356 -318.39599999999996 356 C -316.13399999999996 356 -314.29999999999995 354.164 -314.29999999999995 351.904 L -314.282 292.63599999999997 L -312.483 292.63599999999997 L -312.483 314.477 C -312.483 318.86999999999995 -306.752 318.86999999999995 -306.764 314.477 L -306.764 292.17 C -306.764 287.315 -309.618 282.558 -315.297 282.558 L -331.68 282.552 C -336.855 282.552 -340.098 286.77200000000005 -340.098 292.03700000000003 L -340.098 314.47700000000003 C -340.098 318.83900000000006 -334.334 318.83900000000006 -334.334 314.47700000000003 L -334.334 292.636 L -332.499 292.636 L -332.508 351.904 z" stroke-linecap="round" />
</g>
		<g transform="matrix(2.1 0 0 2.1 -248.48 -52.43)"  >
<path style="stroke: none; stroke-width: 1; stroke-dasharray: none; stroke-linecap: butt; stroke-dashoffset: 0; stroke-linejoin: miter; stroke-miterlimit: 4; fill: rgb(214,53,14); fill-rule: nonzero; opacity: 1;" vector-effect="non-scaling-stroke"  transform=" translate(248.76, -290.79)" d="M -250.323 292.038 C -250.323 290.062 -250.721 288.25600000000003 -251.441 286.696 L -250.178 286.696 C -247.917 286.696 -246.081 288.52900000000005 -246.081 290.79200000000003 C -246.081 293.055 -247.917 294.891 -250.178 294.891 L -250.323 294.891 L -250.323 292.038 z" stroke-linecap="round" />
</g>
		<g transform="matrix(2.1 0 0 2.1 -347.97 7.51)"  >
<path style="stroke: none; stroke-width: 1; stroke-dasharray: none; stroke-linecap: butt; stroke-dashoffset: 0; stroke-linejoin: miter; stroke-miterlimit: 4; fill: rgb(214,53,14); fill-rule: nonzero; opacity: 1;" vector-effect="non-scaling-stroke"  transform=" translate(296.04, -319.28)" d="M -287.832 282.553 L -296.041 282.556 L -304.251 282.553 C -305.827 282.553 -307.222 282.948 -308.40299999999996 283.642 C -306.22099999999995 285.817 -305.10099999999994 289.004 -305.10099999999994 292.171 L -305.10099999999994 292.637 L -305.06899999999996 292.637 L -305.078 351.905 C -305.078 354.16499999999996 -303.24199999999996 356.001 -300.98199999999997 356.001 C -298.715 356.001 -296.883 354.16499999999996 -296.883 351.905 L -296.877 317.527 L -296.04200000000003 317.527 L -295.20700000000005 317.527 L -295.2010000000001 351.905 C -295.2010000000001 354.16499999999996 -293.3690000000001 356.001 -291.1020000000001 356.001 C -288.84100000000007 356.001 -287.0050000000001 354.16499999999996 -287.0050000000001 351.905 L -287.0150000000001 292.63699999999994 L -286.9820000000001 292.63699999999994 L -286.9820000000001 292.17099999999994 C -286.9820000000001 289.00399999999996 -285.8610000000001 285.81699999999995 -283.68000000000006 283.64199999999994 C -284.86 282.948 -286.256 282.553 -287.832 282.553 z" stroke-linecap="round" />
</g>
		<g transform="matrix(2.1 0 0 2.1 -290.34 7.5)"  >
<path style="stroke: none; stroke-width: 1; stroke-dasharray: none; stroke-linecap: butt; stroke-dashoffset: 0; stroke-linejoin: miter; stroke-miterlimit: 4; fill: rgb(214,53,14); fill-rule: nonzero; opacity: 1;" vector-effect="non-scaling-stroke"  transform=" translate(268.65, -319.28)" d="M -259.574 351.904 C -259.574 354.164 -261.41 356 -263.67400000000004 356 C -265.93800000000005 356 -267.773 354.164 -267.773 351.904 L -267.776 317.526 L -269.6 317.526 L -269.588 351.904 C -269.588 354.164 -271.42400000000004 356 -273.687 356 C -275.951 356 -277.784 354.164 -277.784 351.904 L -277.80199999999996 292.63599999999997 L -279.602 292.63599999999997 L -279.602 314.477 C -279.602 318.86999999999995 -285.33299999999997 318.86999999999995 -285.322 314.477 L -285.322 292.17 C -285.322 287.315 -282.468 282.558 -276.787 282.558 L -260.40599999999995 282.552 C -255.22899999999996 282.552 -251.98599999999996 286.77200000000005 -251.98599999999996 292.03700000000003 L -251.98599999999996 314.47700000000003 C -251.98599999999996 318.83900000000006 -257.74999999999994 318.83900000000006 -257.74999999999994 314.47700000000003 L -257.74999999999994 292.636 L -259.58599999999996 292.636 L -259.574 351.904 z" stroke-linecap="round" />
</g>
		<g transform="matrix(2.1 0 0 2.1 -290.34 7.5)"  >
<path style="stroke: none; stroke-width: 1; stroke-dasharray: none; stroke-linecap: butt; stroke-dashoffset: 0; stroke-linejoin: miter; stroke-miterlimit: 4; fill: rgb(214,53,14); fill-rule: nonzero; opacity: 1;" vector-effect="non-scaling-stroke"  transform=" translate(268.65, -319.28)" d="M -259.574 351.904 C -259.574 354.164 -261.41 356 -263.67400000000004 356 C -265.93800000000005 356 -267.773 354.164 -267.773 351.904 L -267.776 317.526 L -269.6 317.526 L -269.588 351.904 C -269.588 354.164 -271.42400000000004 356 -273.687 356 C -275.951 356 -277.784 354.164 -277.784 351.904 L -277.80199999999996 292.63599999999997 L -279.602 292.63599999999997 L -279.602 314.477 C -279.602 318.86999999999995 -285.33299999999997 318.86999999999995 -285.322 314.477 L -285.322 292.17 C -285.322 287.315 -282.468 282.558 -276.787 282.558 L -260.40599999999995 282.552 C -255.22899999999996 282.552 -251.98599999999996 286.77200000000005 -251.98599999999996 292.03700000000003 L -251.98599999999996 314.47700000000003 C -251.98599999999996 318.83900000000006 -257.74999999999994 318.83900000000006 -257.74999999999994 314.47700000000003 L -257.74999999999994 292.636 L -259.58599999999996 292.636 L -259.574 351.904 z" stroke-linecap="round" />
</g>
		<g transform="matrix(2.1 0 0 2.1 -290.34 7.5)"  >
<path style="stroke: none; stroke-width: 1; stroke-dasharray: none; stroke-linecap: butt; stroke-dashoffset: 0; stroke-linejoin: miter; stroke-miterlimit: 4; fill: rgb(214,53,14); fill-rule: nonzero; opacity: 1;" vector-effect="non-scaling-stroke"  transform=" translate(268.65, -319.28)" d="M -259.574 351.904 C -259.574 354.164 -261.41 356 -263.67400000000004 356 C -265.93800000000005 356 -267.773 354.164 -267.773 351.904 L -267.776 317.526 L -269.6 317.526 L -269.588 351.904 C -269.588 354.164 -271.42400000000004 356 -273.687 356 C -275.951 356 -277.784 354.164 -277.784 351.904 L -277.80199999999996 292.63599999999997 L -279.602 292.63599999999997 L -279.602 314.477 C -279.602 318.86999999999995 -285.33299999999997 318.86999999999995 -285.322 314.477 L -285.322 292.17 C -285.322 287.315 -282.468 282.558 -276.787 282.558 L -260.40599999999995 282.552 C -255.22899999999996 282.552 -251.98599999999996 286.77200000000005 -251.98599999999996 292.03700000000003 L -251.98599999999996 314.47700000000003 C -251.98599999999996 318.83900000000006 -257.74999999999994 318.83900000000006 -257.74999999999994 314.47700000000003 L -257.74999999999994 292.636 L -259.58599999999996 292.636 L -259.574 351.904 z" stroke-linecap="round" />
</g>
		<g transform="matrix(3.93 0 0 3.93 0 0)"  >
<rect style="stroke: none; stroke-width: 1; stroke-dasharray: none; stroke-linecap: butt; stroke-dashoffset: 0; stroke-linejoin: miter; stroke-miterlimit: 4; fill: none; fill-rule: nonzero; opacity: 1;" vector-effect="non-scaling-stroke"  x="-190.94564857939997" y="-163.6" rx="0" ry="0" width="381.89129715879994" height="327.2" />
</g>
</g>
</g>
</svg>