<svg xmlns="http://www.w3.org/2000/svg" version="1.1" xmlns:xlink="http://www.w3.org/1999/xlink" xmlns:svgjs="http://svgjs.dev/svgjs" width="1500" height="1284" viewBox="0 0 1500 1284"><g transform="matrix(1,0,0,1,-0.21342180863882732,0.39266055045879966)"><svg viewBox="0 0 382 327" data-background-color="#ffffff" preserveAspectRatio="xMidYMid meet" height="1284" width="1500" xmlns="http://www.w3.org/2000/svg" xmlns:xlink="http://www.w3.org/1999/xlink"><g id="tight-bounds" transform="matrix(1,0,0,1,0.05435142060002818,-0.10000000000002274)"><svg viewBox="0 0 381.89129715879994 327.2" height="327.2" width="381.89129715879994"><g><svg viewBox="0 0 395.52 338.87691330705127" height="327.2" width="381.89129715879994"><g transform="matrix(1,0,0,1,0,220.33557136648395)"><svg viewBox="0 0 395.52 118.54134194056732" height="118.54134194056732" width="395.52"><g id="textblocktransform"><svg viewBox="0 0 395.52 118.54134194056732" height="118.54134194056732" width="395.52" id="textblock"><g><svg viewBox="0 0 395.52 96.89760494275308" height="96.89760494275308" width="395.52"><g transform="matrix(1,0,0,1,0,0)"><svg width="395.52" viewBox="2.486085871115031 -38.41954292797371 250.737204128885 61.427544526436165" height="96.89760494275308" data-palette-color="#e09f05"><path d="M4.428-15.942v0c-0.548-2.542 0.094-4.89 1.928-7.045 1.832-2.162 4.364-3.591 7.596-4.288v0c2.502-0.54 4.568-0.45 6.197 0.269 1.622 0.721 2.639 2.039 3.052 3.955v0c0.321 1.486 0.208 2.768-0.336 3.848-0.543 1.086-1.424 1.76-2.643 2.022v0.001c-0.463 0.1-0.901 0.109-1.314 0.027-0.42-0.08-0.815-0.271-1.187-0.572v0c0.572-0.539 0.979-1.248 1.219-2.125 0.246-0.885 0.276-1.754 0.092-2.608v0c-0.228-1.056-0.72-1.805-1.477-2.249-0.751-0.445-1.719-0.54-2.905-0.284v0c-1.421 0.306-2.449 0.944-3.086 1.914-0.638 0.963-0.804 2.155-0.497 3.575v0c0.249 1.153 0.782 2.188 1.6 3.102 0.823 0.907 2.41 2.021 4.761 3.341v0c3.099 1.719 5.241 3.319 6.427 4.803 1.181 1.491 1.992 3.26 2.434 5.306v0c0.811 3.76 0.155 7.042-1.968 9.847-2.123 2.804-5.211 4.643-9.265 5.517v0c-3.232 0.697-5.95 0.509-8.152-0.564-2.197-1.081-3.588-2.974-4.171-5.678v0c-0.513-2.379-0.226-4.48 0.86-6.303 1.093-1.825 2.647-2.954 4.66-3.389v0c1.251-0.27 2.337-0.201 3.257 0.208 0.914 0.41 1.513 1.119 1.8 2.129v0c-1.714 0.37-3.017 1.08-3.909 2.132-0.897 1.06-1.189 2.313-0.877 3.759v0c0.299 1.388 0.976 2.436 2.029 3.143 1.045 0.702 2.294 0.896 3.747 0.583v0c1.714-0.37 2.971-1.261 3.771-2.675 0.8-1.414 0.983-3.128 0.548-5.141v0c-0.335-1.551-1-2.962-1.998-4.234-0.996-1.265-2.842-2.852-5.538-4.759v0c-2.43-1.685-4.081-3.062-4.952-4.129-0.873-1.073-1.44-2.22-1.703-3.438zM28.054-15.155l0.056-2.058 1.647-0.28 0.328-7.146 7.215-2.249-0.356 8.175 2.997-0.509-0.066 2.06-2.987 0.507-0.652 15.518c-0.014 0.314-0.017 0.598-0.007 0.853 0.003 0.256 0.027 0.516 0.071 0.779v0c0.113 0.664 0.354 1.11 0.725 1.338 0.363 0.229 0.91 0.282 1.639 0.158v0c0.933-0.158 1.745-0.716 2.435-1.671 0.696-0.957 1.135-2.117 1.316-3.48v0l2.09-0.355c-0.55 3.211-1.59 5.747-3.12 7.61-1.535 1.87-3.466 3.003-5.793 3.398v0c-1.663 0.282-3.056-0.019-4.18-0.903-1.125-0.891-1.848-2.283-2.17-4.176v0c-0.074-0.434-0.124-0.929-0.151-1.486-0.028-0.563-0.03-1.172-0.005-1.824v0l0.615-14.538zM51.18 0.138v0c0.872-0.116 1.602-0.596 2.19-1.44 0.588-0.838 1.002-2.006 1.24-3.503v0l1.284-16.563 7.217-0.957-1.346 17.539c-0.026 0.313-0.039 0.597-0.039 0.853 0 0.256 0.018 0.515 0.053 0.779v0c0.089 0.667 0.31 1.122 0.665 1.365 0.355 0.242 0.899 0.315 1.633 0.217v0c0.872-0.116 1.608-0.603 2.207-1.463 0.605-0.867 1.029-2.03 1.273-3.487v0l2.111-0.28c-0.662 3.222-1.743 5.722-3.242 7.501-1.499 1.779-3.372 2.818-5.619 3.116v0c-1.434 0.19-2.642-0.067-3.623-0.771-0.974-0.705-1.633-1.818-1.976-3.339v0c-0.752 1.734-1.687 3.075-2.805 4.024-1.118 0.949-2.447 1.525-3.988 1.729v0c-1.672 0.222-3.054-0.13-4.144-1.054-1.092-0.931-1.764-2.348-2.017-4.252v0c-0.058-0.436-0.09-0.933-0.096-1.49-0.008-0.564 0.013-1.172 0.06-1.824v0l1.274-16.561 7.227-0.959-1.346 17.54c-0.03 0.28-0.041 0.527-0.033 0.74 0.016 0.22 0.039 0.449 0.071 0.687v0c0.089 0.667 0.278 1.16 0.569 1.478 0.298 0.317 0.698 0.442 1.2 0.375zM74.147-6.614v0c0.109 1.309 0.377 2.277 0.804 2.904 0.426 0.62 1.108 0.891 2.044 0.813v0c0.844-0.07 1.638-0.534 2.383-1.393 0.738-0.858 1.209-1.904 1.414-3.138v0l-0.02-0.249 1.509-11.756c-0.151-0.529-0.416-0.939-0.795-1.228-0.379-0.296-0.855-0.421-1.426-0.373v0c-1.847 0.154-3.356 1.838-4.526 5.053-1.177 3.215-1.64 6.338-1.387 9.367zM82.536-21.792v0l0.017 0.199 1.505-11.806 7.38-1.628-3.531 27.719c-0.041 0.311-0.068 0.594-0.08 0.849-0.012 0.255-0.007 0.516 0.015 0.782v0c0.056 0.671 0.255 1.136 0.598 1.395 0.343 0.259 0.886 0.358 1.63 0.296v0c0.87-0.072 1.625-0.523 2.266-1.353 0.646-0.837 1.13-1.977 1.451-3.422v0l2.112-0.176c-0.794 3.077-1.958 5.441-3.493 7.094-1.541 1.654-3.505 2.58-5.89 2.779v0c-1.382 0.115-2.533-0.17-3.453-0.857-0.92-0.686-1.537-1.708-1.851-3.066v0c-0.881 1.632-1.914 2.885-3.098 3.76-1.178 0.874-2.508 1.373-3.99 1.496v0c-2.079 0.173-3.776-0.395-5.089-1.703-1.314-1.315-2.079-3.269-2.294-5.86v0c-0.157-1.88-0.035-3.87 0.366-5.971 0.4-2.1 1.035-4.033 1.905-5.798v0c1.077-2.083 2.399-3.725 3.965-4.926 1.56-1.194 3.313-1.871 5.259-2.034v0c1.315-0.11 2.344 0.032 3.086 0.425 0.742 0.393 1.147 0.995 1.214 1.806zM102.132-4.669v0c0.846-0.03 1.593-0.411 2.241-1.141 0.648-0.73 1.167-1.78 1.559-3.148v0l2.956-16.666 7.275-0.26-4.167 23.654c1.664-0.667 2.959-1.567 3.886-2.701 0.92-1.127 1.664-2.715 2.231-4.763v0l2.129-0.076c-0.688 2.593-1.72 4.688-3.098 6.285-1.377 1.604-3.217 2.767-5.519 3.489v0l-0.629 3.675c-0.505 2.853-1.491 5.033-2.958 6.54-1.467 1.507-3.413 2.303-5.838 2.39v0c-1.719 0.061-3.11-0.329-4.175-1.171-1.057-0.843-1.613-2.024-1.667-3.543v0c-0.059-1.652 0.572-3.132 1.892-4.44 1.321-1.315 3.348-2.445 6.083-3.39v0l0.512-2.75c-0.812 0.976-1.706 1.719-2.682 2.227-0.983 0.502-2.08 0.775-3.293 0.818v0c-1.686 0.06-3.027-0.422-4.024-1.447-0.998-1.032-1.531-2.507-1.6-4.425v0c-0.016-0.44 0-0.937 0.047-1.493 0.047-0.562 0.125-1.165 0.236-1.81v0l2.857-16.362 7.285-0.261-3.023 17.329c-0.026 0.201-0.052 0.412-0.077 0.634-0.025 0.221-0.034 0.435-0.027 0.641v0c0.025 0.706 0.168 1.248 0.428 1.626 0.267 0.377 0.654 0.557 1.16 0.539zM103.666 4.091l0.248-1.479c-1.662 0.707-2.885 1.417-3.667 2.132-0.788 0.722-1.167 1.506-1.136 2.352v0c0.015 0.433 0.199 0.813 0.551 1.141 0.345 0.328 0.754 0.483 1.227 0.467v0c0.573-0.02 1.115-0.447 1.626-1.279 0.511-0.825 0.895-1.937 1.151-3.334zM134.189-19.871l-4.397 19.336-7.289-0.093 7.29-32.1 7.502-0.924-2.513 11.208 0.3 0.004c1.887 0.024 3.584-0.814 5.093-2.515 1.508-1.701 2.276-3.565 2.301-5.591v0c0.022-1.687-0.545-3.027-1.699-4.022-1.147-0.995-2.784-1.506-4.91-1.533v0c-3.546-0.045-6.557 1.046-9.033 3.275-2.475 2.235-3.737 5.189-3.783 8.863v0c-0.008 0.647 0.028 1.204 0.108 1.671 0.074 0.474 0.211 0.933 0.413 1.376v0c0.065 0.134 0.104 0.228 0.116 0.281 0.019 0.054 0.029 0.097 0.029 0.13v0c-1.82-0.023-3.171-0.43-4.055-1.221-0.89-0.785-1.325-1.954-1.306-3.507v0c0.023-1.82 0.629-3.602 1.819-5.348 1.189-1.738 2.818-3.251 4.888-4.538v0c1.707-1.092 3.585-1.921 5.632-2.488 2.047-0.567 4.118-0.838 6.211-0.811v0c3.306 0.042 5.92 0.819 7.841 2.331 1.921 1.511 2.866 3.464 2.836 5.856v0c-0.02 1.587-0.496 3.101-1.428 4.542-0.925 1.442-2.17 2.589-3.735 3.443v0c1.915 0.398 3.38 1.32 4.395 2.766 1.008 1.446 1.498 3.266 1.471 5.459v0c-0.02 1.587-0.278 3.253-0.774 5.001-0.489 1.754-1.166 3.299-2.029 4.634v0c-1.034 1.607-2.266 2.815-3.697 3.624-1.424 0.809-3.012 1.202-4.765 1.179v0c-1.587-0.02-2.816-0.356-3.688-1.007-0.865-0.651-1.29-1.587-1.274-2.807v0c0.005-0.4 0.061-0.846 0.167-1.338 0.106-0.485 0.28-1.013 0.52-1.583v0c0.632 0.648 1.209 1.119 1.732 1.412 0.516 0.293 1.061 0.444 1.635 0.451v0c1.52 0.019 2.748-0.842 3.683-2.583 0.936-1.742 1.42-3.896 1.453-6.462v0c0.027-2.126-0.359-3.735-1.159-4.825-0.793-1.09-1.982-1.645-3.569-1.666v0c-0.24-0.003-0.587 0.009-1.041 0.037-0.454 0.028-0.884 0.055-1.291 0.083zM157.809-4.253v0c0.878 0.062 1.689-0.261 2.434-0.97 0.745-0.702 1.385-1.763 1.92-3.183v0l4.59-15.965 7.261 0.514-4.846 16.91c-0.088 0.301-0.158 0.577-0.209 0.827-0.051 0.25-0.086 0.509-0.105 0.775v0c-0.048 0.672 0.078 1.162 0.377 1.47 0.299 0.309 0.817 0.489 1.555 0.541v0c0.878 0.062 1.696-0.267 2.456-0.989 0.767-0.728 1.416-1.781 1.948-3.16v0l2.125 0.151c-1.297 3.023-2.858 5.255-4.685 6.695-1.826 1.441-3.87 2.082-6.131 1.922v0c-1.443-0.102-2.574-0.597-3.393-1.484-0.813-0.886-1.234-2.109-1.264-3.668v0c-1.085 1.547-2.271 2.673-3.558 3.377-1.286 0.704-2.704 1.001-4.254 0.892v0c-1.682-0.119-2.965-0.741-3.847-1.867-0.882-1.132-1.256-2.655-1.12-4.57v0c0.031-0.439 0.099-0.932 0.205-1.48 0.106-0.554 0.248-1.145 0.426-1.774v0l4.58-15.966 7.272 0.515-4.847 16.91c-0.086 0.268-0.146 0.508-0.181 0.719-0.029 0.219-0.052 0.447-0.069 0.686v0c-0.048 0.672 0.039 1.192 0.26 1.563 0.228 0.37 0.594 0.573 1.1 0.609zM181.665-6.246v0c-0.157 1.304-0.089 2.306 0.203 3.005 0.293 0.693 0.906 1.096 1.839 1.208v0c0.841 0.101 1.712-0.194 2.614-0.885 0.895-0.692 1.568-1.621 2.017-2.789v0l0.03-0.249 3.843-11.211c-0.042-0.549-0.219-1.003-0.531-1.363-0.312-0.366-0.752-0.584-1.322-0.653v0c-1.84-0.221-3.657 1.126-5.45 4.04-1.8 2.913-2.881 5.879-3.243 8.897zM192.936-19.427v0l-0.024 0.198 3.849-11.261 7.557-0.11-9.035 26.441c-0.103 0.297-0.186 0.569-0.249 0.816-0.063 0.248-0.111 0.504-0.143 0.769v0c-0.08 0.669 0.021 1.164 0.305 1.487 0.284 0.323 0.796 0.529 1.537 0.617v0c0.867 0.104 1.698-0.186 2.492-0.869 0.801-0.689 1.504-1.71 2.11-3.06v0l2.104 0.252c-1.397 2.854-3.013 4.936-4.849 6.247-1.843 1.31-3.952 1.822-6.328 1.537v0c-1.377-0.165-2.447-0.676-3.21-1.534-0.763-0.857-1.162-1.983-1.196-3.376v0c-1.191 1.421-2.455 2.441-3.792 3.06-1.33 0.619-2.733 0.84-4.209 0.663v0c-2.072-0.249-3.619-1.146-4.642-2.693-1.022-1.553-1.378-3.62-1.069-6.201v0c0.225-1.873 0.745-3.798 1.56-5.775 0.815-1.977 1.826-3.742 3.033-5.297v0c1.475-1.824 3.099-3.167 4.874-4.027 1.768-0.855 3.622-1.167 5.561-0.934v0c1.311 0.157 2.29 0.503 2.938 1.037 0.648 0.534 0.923 1.205 0.826 2.013zM207.729-2.854v0c-0.221 1.295-0.203 2.299 0.055 3.012 0.258 0.707 0.851 1.139 1.777 1.297v0c0.835 0.142 1.719-0.109 2.654-0.755 0.929-0.646 1.646-1.542 2.153-2.686v0l0.042-0.247 4.393-11.008c-0.014-0.55-0.169-1.013-0.464-1.387-0.293-0.381-0.723-0.62-1.288-0.717v0c-1.827-0.312-3.708 0.943-5.643 3.765-1.942 2.82-3.168 5.729-3.679 8.726zM219.638-15.462v0l-0.034 0.197 4.402-11.057 7.553 0.263-10.331 25.963c-0.117 0.291-0.214 0.559-0.289 0.803-0.075 0.244-0.136 0.498-0.181 0.76v0c-0.113 0.664-0.036 1.164 0.231 1.5 0.267 0.336 0.769 0.567 1.505 0.693v0c0.861 0.147 1.705-0.102 2.531-0.745 0.834-0.649 1.587-1.633 2.259-2.952v0l2.09 0.356c-1.536 2.781-3.253 4.781-5.152 6-1.905 1.217-4.037 1.624-6.397 1.222v0c-1.367-0.233-2.41-0.797-3.13-1.691-0.72-0.894-1.063-2.038-1.028-3.431v0c-1.26 1.361-2.573 2.317-3.938 2.869-1.359 0.553-2.771 0.704-4.237 0.454v0c-2.057-0.351-3.558-1.324-4.503-2.919-0.944-1.602-1.198-3.684-0.761-6.246v0c0.317-1.86 0.931-3.757 1.843-5.692 0.911-1.934 2.008-3.648 3.291-5.14v0c1.563-1.749 3.252-3.009 5.068-3.781 1.808-0.767 3.675-0.986 5.6-0.658v0c1.301 0.222 2.262 0.616 2.882 1.181 0.62 0.566 0.862 1.249 0.726 2.051zM234.346 6.006v0c0.827 0.182 1.645 0 2.454-0.546 0.809-0.546 1.574-1.432 2.294-2.659v0l7.019-15.403 7.11 1.562-9.934 21.868c1.778-0.231 3.256-0.779 4.437-1.647 1.172-0.862 2.288-2.214 3.348-4.056v0l2.081 0.458c-1.313 2.34-2.835 4.111-4.567 5.313-1.733 1.21-3.805 1.877-6.214 2.004v0l-1.526 3.401c-1.201 2.637-2.699 4.502-4.495 5.596-1.796 1.093-3.88 1.38-6.25 0.859v0c-1.68-0.369-2.93-1.094-3.751-2.175-0.814-1.08-1.058-2.362-0.732-3.847v0c0.355-1.615 1.335-2.891 2.94-3.828 1.607-0.944 3.852-1.532 6.736-1.766v0l1.182-2.536c-1.03 0.743-2.081 1.239-3.153 1.489-1.077 0.241-2.208 0.232-3.393-0.029v0c-1.647-0.362-2.826-1.164-3.536-2.405-0.709-1.248-0.857-2.809-0.445-4.685v0c0.094-0.43 0.234-0.908 0.417-1.434 0.185-0.533 0.412-1.097 0.679-1.693v0l6.847-15.134 7.12 1.565-7.248 16.028c-0.075 0.188-0.153 0.386-0.233 0.594-0.08 0.208-0.142 0.413-0.186 0.614v0c-0.152 0.69-0.148 1.251 0.01 1.681 0.164 0.432 0.494 0.702 0.989 0.811zM233.647 14.873l0.608-1.371c-1.786 0.27-3.147 0.653-4.082 1.15-0.943 0.503-1.506 1.167-1.687 1.995v0c-0.093 0.423-0.01 0.837 0.249 1.242 0.253 0.404 0.61 0.656 1.073 0.758v0c0.56 0.123 1.191-0.155 1.892-0.833 0.701-0.672 1.349-1.652 1.947-2.941z" opacity="1" transform="matrix(1,0,0,1,0,0)" fill="#e09f05" class="wordmark-text-0" data-fill-palette-color="primary" id="text-0"></path></svg></g></svg></g><g transform="matrix(1,0,0,1,118.31980799999998,104.78474703967017)"><svg viewBox="0 0 158.88038400000002 13.756594900897143" height="13.756594900897143" width="158.88038400000002"><g transform="matrix(1,0,0,1,0,0)"><svg width="158.88038400000002" viewBox="3 -31.7 479.26 41.5" height="13.756594900897143" data-palette-color="#e09f05"><path d="M26.2 0L9.6 0Q6.2 0 4.6-0.3 3-0.6 3-1L3-1 5-5.35Q6.15-5.15 10.73-4.98 15.3-4.8 23.3-4.8L23.3-4.8 24.25-4.8Q26.4-4.8 27.3-5.58 28.2-6.35 28.2-8.2L28.2-8.2 28.2-9.2Q28.2-10.95 27.48-11.7 26.75-12.45 24.25-12.45L24.25-12.45 12.65-12.45Q7.6-12.45 5.3-14.33 3-16.2 3-20.45L3-20.45 3-21.25Q3-23.45 3.83-25.3 4.65-27.15 6.65-28.28 8.65-29.4 12.15-29.4L12.15-29.4 25.75-29.4Q29.15-29.4 31.25-29.05 33.35-28.7 33.35-28.3L33.35-28.3 32.35-24.1Q31.05-24.25 26.45-24.43 21.85-24.6 14.1-24.6L14.1-24.6 13.55-24.65Q11.25-24.65 10.45-23.73 9.65-22.8 9.6-21.4L9.6-21.4 9.6-20.55Q9.6-18.9 10.53-18.07 11.45-17.25 13.6-17.25L13.6-17.25 24.7-17.25Q27.9-17.25 30.15-16.6 32.4-15.95 33.6-14.23 34.8-12.5 34.8-9.15L34.8-9.15 34.8-8.35Q34.8-4.6 32.88-2.3 30.95 0 26.2 0L26.2 0ZM49.05 0L47.5 0Q43.7 0 42.3-1.6 40.9-3.2 40.9-6.4L40.9-6.4 40.9-18.1 36.8-18.1 36.8-22.4 38.9-22.4Q39.85-22.4 40.27-22.7 40.7-23 40.9-23.9L40.9-23.9 41.9-29.25 47-29.25 47-22.4 57.4-22.4 57.4-18.1 47-18.1 47-6.35Q47-5.1 47.6-4.7 48.2-4.3 49.4-4.3L49.4-4.3 56.45-4.3 56.95-0.5Q55.9-0.35 53.75-0.18 51.6 0 49.05 0L49.05 0ZM70.55 0L68 0Q65.55 0 64.17-0.65 62.8-1.3 62.22-2.3 61.65-3.3 61.52-4.4 61.4-5.5 61.4-6.4L61.4-6.4 61.4-22.4 67.5-22.4 67.5-6.3Q67.45-5.2 68.22-4.75 69-4.3 69.9-4.3L69.9-4.3 79.8-4.3Q80.9-4.3 81.1-4.5 81.3-4.7 81.3-5.8L81.3-5.8 81.3-22.4 87.4-22.4 87.4 0 83.3 0 81.4-1Q79.4-0.6 76.67-0.3 73.95 0 70.55 0L70.55 0ZM101.99 0L99.49 0Q96.99 0 95.64-0.65 94.29-1.3 93.72-2.3 93.14-3.3 93.02-4.4 92.89-5.5 92.89-6.4L92.89-6.4 92.89-16Q92.89-16.75 93.02-17.82 93.14-18.9 93.72-19.95 94.29-21 95.67-21.7 97.04-22.4 99.49-22.4L99.49-22.4 102.04-22.4Q106.64-22.4 109.47-22.23 112.29-22.05 113.79-21.85L113.79-21.85 113.79-31.7 119.89-31.7 119.89 0 115.79 0 113.84-1Q111.74-0.65 108.79-0.33 105.84 0 101.99 0L101.99 0ZM101.39-4.3L101.39-4.3 112.24-4.3Q113.29-4.3 113.54-4.55 113.79-4.8 113.79-5.8L113.79-5.8 113.79-17.75Q112.09-17.85 109.49-17.98 106.89-18.1 103.94-18.1L103.94-18.1 101.39-18.1Q98.99-18.1 98.99-16.1L98.99-16.1 98.99-6.3Q98.99-4.3 101.39-4.3ZM129.84 9.8L128.49 9.8Q126.09 9.8 124.09 9.25 122.09 8.7 121.39 8.25L121.39 8.25 122.89 3.75Q123.74 4.1 125.32 4.58 126.89 5.05 128.89 5.05L128.89 5.05 129.44 5.05Q131.74 5.05 133.52 3.68 135.29 2.3 136.24 0L136.24 0 133.74 0 123.94-22.4 130.94-22.4 136.69-8.6 137.99-5 138.49-5 139.79-8.6 145.64-22.4 152.44-22.4 151.64-19.35Q150.69-17.4 149.47-14.88 148.24-12.35 146.94-9.65 145.64-6.95 144.42-4.45 143.19-1.95 142.24 0L142.24 0Q140.79 3 139.07 5.2 137.34 7.4 135.12 8.6 132.89 9.8 129.84 9.8L129.84 9.8ZM190.14 0L173.54 0Q170.14 0 168.54-0.3 166.94-0.6 166.94-1L166.94-1 168.94-5.35Q170.09-5.15 174.66-4.98 179.24-4.8 187.24-4.8L187.24-4.8 188.19-4.8Q190.34-4.8 191.24-5.58 192.14-6.35 192.14-8.2L192.14-8.2 192.14-9.2Q192.14-10.95 191.41-11.7 190.69-12.45 188.19-12.45L188.19-12.45 176.59-12.45Q171.54-12.45 169.24-14.33 166.94-16.2 166.94-20.45L166.94-20.45 166.94-21.25Q166.94-23.45 167.76-25.3 168.59-27.15 170.59-28.28 172.59-29.4 176.09-29.4L176.09-29.4 189.69-29.4Q193.09-29.4 195.19-29.05 197.29-28.7 197.29-28.3L197.29-28.3 196.29-24.1Q194.99-24.25 190.39-24.43 185.79-24.6 178.04-24.6L178.04-24.6 177.49-24.65Q175.19-24.65 174.39-23.73 173.59-22.8 173.54-21.4L173.54-21.4 173.54-20.55Q173.54-18.9 174.46-18.07 175.39-17.25 177.54-17.25L177.54-17.25 188.64-17.25Q191.84-17.25 194.09-16.6 196.34-15.95 197.54-14.23 198.74-12.5 198.74-9.15L198.74-9.15 198.74-8.35Q198.74-4.6 196.81-2.3 194.89 0 190.14 0L190.14 0ZM212.98 0L211.43 0Q207.63 0 206.23-1.6 204.83-3.2 204.83-6.4L204.83-6.4 204.83-18.1 200.73-18.1 200.73-22.4 202.83-22.4Q203.78-22.4 204.21-22.7 204.63-23 204.83-23.9L204.83-23.9 205.83-29.25 210.93-29.25 210.93-22.4 221.33-22.4 221.33-18.1 210.93-18.1 210.93-6.35Q210.93-5.1 211.53-4.7 212.13-4.3 213.33-4.3L213.33-4.3 220.38-4.3 220.88-0.5Q219.83-0.35 217.68-0.18 215.53 0 212.98 0L212.98 0ZM234.28 0L231.78 0Q227.98 0 226.28-1.78 224.58-3.55 224.58-6.65L224.58-6.65Q224.58-9.9 226.36-11.65 228.13-13.4 231.78-13.4L231.78-13.4 234.33-13.4Q238.08-13.4 241.08-13.2 244.08-13 246.03-12.8L246.03-12.8 246.03-16.1Q246.03-16.55 245.93-17.03 245.83-17.5 245.33-17.8 244.83-18.1 243.63-18.1L243.63-18.1 241.13-18.1Q235.68-18.1 232.03-17.93 228.38-17.75 227.08-17.6L227.08-17.6 226.53-21.4Q226.53-22.1 230.33-22.25 234.13-22.4 243.03-22.4L243.03-22.4 245.53-22.4Q248.03-22.4 249.38-21.7 250.73-21 251.31-19.95 251.88-18.9 252.01-17.82 252.13-16.75 252.13-16L252.13-16 252.13 0 248.03 0 246.08-1Q243.98-0.65 241.03-0.33 238.08 0 234.28 0L234.28 0ZM233.08-4.3L233.08-4.3 244.53-4.3Q245.63-4.3 245.83-4.5 246.03-4.7 246.03-5.75L246.03-5.75 246.03-9.6 233.08-9.6Q231.73-9.6 231.21-8.95 230.68-8.3 230.68-6.9L230.68-6.9Q230.68-5.5 231.28-4.9 231.88-4.3 233.08-4.3ZM263.98 0L257.88 0 257.88-22.4 261.98-22.4 263.88-21.4Q265.18-22.1 266.68-22.5 268.18-22.9 270.48-22.9L270.48-22.9Q274.13-22.9 276.4-22.1 278.68-21.3 279.43-20.9L279.43-20.9 277.68-16.55Q277.08-16.85 275.7-17.32 274.33-17.8 272.48-18.2 270.63-18.6 268.43-18.6L268.43-18.6 267.88-18.6Q265.48-18.6 264.75-17.65 264.03-16.7 263.98-14.5L263.98-14.5 263.98 0ZM293.18 0L291.63 0Q287.83 0 286.43-1.6 285.03-3.2 285.03-6.4L285.03-6.4 285.03-18.1 280.93-18.1 280.93-22.4 283.03-22.4Q283.98-22.4 284.4-22.7 284.83-23 285.03-23.9L285.03-23.9 286.03-29.25 291.13-29.25 291.13-22.4 301.53-22.4 301.53-18.1 291.13-18.1 291.13-6.35Q291.13-5.1 291.73-4.7 292.33-4.3 293.53-4.3L293.53-4.3 300.58-4.3 301.08-0.5Q300.03-0.35 297.88-0.18 295.73 0 293.18 0L293.18 0ZM325.32 0L311.17 0Q307.82 0 306.42-0.35 305.02-0.7 305.02-1.05L305.02-1.05 306.52-4.8Q307.97-4.65 311.85-4.48 315.72-4.3 321.42-4.3L321.42-4.3 323.92-4.3Q325.17-4.3 325.5-4.98 325.82-5.65 325.82-6.8L325.82-6.8Q325.82-7.95 325.45-8.65 325.07-9.35 323.92-9.35L323.92-9.35 311.62-9.35Q308.12-9.35 306.57-10.68 305.02-12 305.02-14.65L305.02-14.65 305.02-16.65Q305.02-17.35 305.17-18.3 305.32-19.25 305.92-20.2 306.52-21.15 307.87-21.78 309.22-22.4 311.62-22.4L311.62-22.4 325.42-22.4Q328.42-22.4 329.67-22.05 330.92-21.7 330.92-21.35L330.92-21.35 330.42-17.6Q328.97-17.75 325.07-17.93 321.17-18.1 315.52-18.1L315.52-18.1 313.02-18.1Q311.77-18.1 311.45-17.43 311.12-16.75 311.12-15.85L311.12-15.85Q311.12-14.9 311.45-14.28 311.77-13.65 313.02-13.65L313.02-13.65 325.32-13.65Q328.72-13.65 330.32-12.25 331.92-10.85 331.92-8.7L331.92-8.7 331.92-5.75Q331.92-4.85 331.8-3.85 331.67-2.85 331.07-1.98 330.47-1.1 329.12-0.55 327.77 0 325.32 0L325.32 0ZM367.02 0L360.42 0 360.42-29.4 367.02-29.4 367.02-17.2 386.62-17.2 386.62-29.4 393.22-29.4 393.22 0 386.62 0 386.62-12.4 367.02-12.4 367.02 0ZM416.36 0L406.31 0Q403.81 0 402.46-0.65 401.11-1.3 400.54-2.3 399.96-3.3 399.84-4.4 399.71-5.5 399.71-6.4L399.71-6.4 399.71-16Q399.71-16.75 399.84-17.82 399.96-18.9 400.54-19.95 401.11-21 402.49-21.7 403.86-22.4 406.31-22.4L406.31-22.4 417.06-22.4Q420.36-22.4 422.24-21.78 424.11-21.15 424.89-19.75 425.66-18.35 425.66-16L425.66-16 425.66-8.6 416.91-8.6Q412.41-8.6 409.59-8.8 406.76-9 405.81-9.05L405.81-9.05 405.81-6.3Q405.76-4.3 408.21-4.3L408.21-4.3 410.76-4.3Q413.46-4.3 416.04-4.38 418.61-4.45 420.76-4.58 422.91-4.7 424.21-4.8L424.21-4.8 426.21-1.55Q426.21 0 416.36 0L416.36 0ZM405.81-16.1L405.81-12.9 419.56-12.9 419.56-16.1Q419.56-17.1 419.34-17.5 419.11-17.9 418.01-18 416.91-18.1 414.26-18.1L414.26-18.1 408.21-18.1Q405.81-18.1 405.81-16.1L405.81-16.1ZM437.31 0L431.21 0 431.21-22.4 435.31-22.4 437.21-21.4Q438.51-22.1 440.01-22.5 441.51-22.9 443.81-22.9L443.81-22.9Q447.46-22.9 449.74-22.1 452.01-21.3 452.76-20.9L452.76-20.9 451.01-16.55Q450.41-16.85 449.04-17.32 447.66-17.8 445.81-18.2 443.96-18.6 441.76-18.6L441.76-18.6 441.21-18.6Q438.81-18.6 438.09-17.65 437.36-16.7 437.31-14.5L437.31-14.5 437.31 0ZM472.41 0L462.36 0Q459.86 0 458.51-0.65 457.16-1.3 456.58-2.3 456.01-3.3 455.88-4.4 455.76-5.5 455.76-6.4L455.76-6.4 455.76-16Q455.76-16.75 455.88-17.82 456.01-18.9 456.58-19.95 457.16-21 458.53-21.7 459.91-22.4 462.36-22.4L462.36-22.4 473.11-22.4Q476.41-22.4 478.28-21.78 480.16-21.15 480.93-19.75 481.71-18.35 481.71-16L481.71-16 481.71-8.6 472.96-8.6Q468.46-8.6 465.63-8.8 462.81-9 461.86-9.05L461.86-9.05 461.86-6.3Q461.81-4.3 464.26-4.3L464.26-4.3 466.81-4.3Q469.51-4.3 472.08-4.38 474.66-4.45 476.81-4.58 478.96-4.7 480.26-4.8L480.26-4.8 482.26-1.55Q482.26 0 472.41 0L472.41 0ZM461.86-16.1L461.86-12.9 475.61-12.9 475.61-16.1Q475.61-17.1 475.38-17.5 475.16-17.9 474.06-18 472.96-18.1 470.31-18.1L470.31-18.1 464.26-18.1Q461.86-18.1 461.86-16.1L461.86-16.1Z" opacity="1" transform="matrix(1,0,0,1,0,0)" fill="#e09f05" class="slogan-text-1" data-fill-palette-color="secondary" id="text-1"></path></svg></g></svg></g></svg></g></svg></g><g transform="matrix(1,0,0,1,78.25220193890917,0)"><svg viewBox="0 0 239.01559612218165 191.79989125983792" height="191.79989125983792" width="239.01559612218165"><g><svg xmlns="http://www.w3.org/2000/svg" xmlns:xlink="http://www.w3.org/1999/xlink" version="1.1" x="0" y="0" viewBox="-346 10.416999999999973 430.65700000000004 345.584" enable-background="new -346 256 100 100" xml:space="preserve" width="239.01559612218165" height="191.79989125983792" class="icon-icon-0" data-fill-palette-color="accent" id="icon-0"><g fill="#d6350e" data-fill-palette-color="accent"><circle cx="-296.002" cy="273.726" r="7.3" fill="#d6350e" data-fill-palette-color="accent"></circle><circle cx="-268.652" cy="273.726" r="7.3" fill="#d6350e" data-fill-palette-color="accent"></circle><path d="M-341.76 292.038c0-1.976 0.4-3.782 1.118-5.342h-1.262c-2.261 0-4.096 1.833-4.096 4.096s1.835 4.099 4.096 4.099h0.144V292.038z" fill="#d6350e" data-fill-palette-color="accent"></path><circle cx="-323.432" cy="273.726" r="7.3" fill="#d6350e" data-fill-palette-color="accent"></circle></g><g fill="#d6350e" data-fill-palette-color="accent"><path d="M-332.508 351.904c0 2.26 1.835 4.096 4.098 4.096 2.265 0 4.099-1.836 4.099-4.096l0.004-34.378h1.824l-0.012 34.378c0 2.26 1.835 4.096 4.099 4.096 2.262 0 4.096-1.836 4.096-4.096l0.018-59.268h1.799v21.841c0 4.393 5.731 4.393 5.719 0V292.17c0-4.855-2.854-9.612-8.533-9.612l-16.383-0.006c-5.175 0-8.418 4.22-8.418 9.485v22.44c0 4.362 5.764 4.362 5.764 0v-21.841h1.835L-332.508 351.904z" fill="#d6350e" data-fill-palette-color="accent"></path><circle cx="-323.432" cy="273.726" r="7.3" fill="#d6350e" data-fill-palette-color="accent"></circle><path d="M-332.508 351.904c0 2.26 1.835 4.096 4.098 4.096 2.265 0 4.099-1.836 4.099-4.096l0.004-34.378h1.824l-0.012 34.378c0 2.26 1.835 4.096 4.099 4.096 2.262 0 4.096-1.836 4.096-4.096l0.018-59.268h1.799v21.841c0 4.393 5.731 4.393 5.719 0V292.17c0-4.855-2.854-9.612-8.533-9.612l-16.383-0.006c-5.175 0-8.418 4.22-8.418 9.485v22.44c0 4.362 5.764 4.362 5.764 0v-21.841h1.835L-332.508 351.904z" fill="#d6350e" data-fill-palette-color="accent"></path><path d="M-332.508 351.904c0 2.26 1.835 4.096 4.098 4.096 2.265 0 4.099-1.836 4.099-4.096l0.004-34.378h1.824l-0.012 34.378c0 2.26 1.835 4.096 4.099 4.096 2.262 0 4.096-1.836 4.096-4.096l0.018-59.268h1.799v21.841c0 4.393 5.731 4.393 5.719 0V292.17c0-4.855-2.854-9.612-8.533-9.612l-16.383-0.006c-5.175 0-8.418 4.22-8.418 9.485v22.44c0 4.362 5.764 4.362 5.764 0v-21.841h1.835L-332.508 351.904z" fill="#d6350e" data-fill-palette-color="accent"></path><path d="M-250.323 292.038c0-1.976-0.398-3.782-1.118-5.342h1.263c2.261 0 4.097 1.833 4.097 4.096s-1.836 4.099-4.097 4.099h-0.145V292.038z" fill="#d6350e" data-fill-palette-color="accent"></path><path d="M-287.832 282.553l-8.209 0.003-8.21-0.003c-1.576 0-2.971 0.395-4.152 1.089 2.182 2.175 3.302 5.362 3.302 8.529v0.466h0.032l-0.009 59.268c0 2.26 1.836 4.096 4.096 4.096 2.267 0 4.099-1.836 4.099-4.096l0.006-34.378h0.835 0.835l0.006 34.378c0 2.26 1.832 4.096 4.099 4.096 2.261 0 4.097-1.836 4.097-4.096l-0.01-59.268h0.033v-0.466c0-3.167 1.121-6.354 3.302-8.529C-284.86 282.948-286.256 282.553-287.832 282.553z" fill="#d6350e" data-fill-palette-color="accent"></path><path d="M-259.574 351.904c0 2.26-1.836 4.096-4.1 4.096s-4.099-1.836-4.099-4.096l-0.003-34.378h-1.824l0.012 34.378c0 2.26-1.836 4.096-4.099 4.096-2.264 0-4.097-1.836-4.097-4.096l-0.018-59.268h-1.8v21.841c0 4.393-5.731 4.393-5.72 0V292.17c0-4.855 2.854-9.612 8.535-9.612l16.381-0.006c5.177 0 8.42 4.22 8.42 9.485v22.44c0 4.362-5.764 4.362-5.764 0v-21.841h-1.836L-259.574 351.904z" fill="#d6350e" data-fill-palette-color="accent"></path><path d="M-259.574 351.904c0 2.26-1.836 4.096-4.1 4.096s-4.099-1.836-4.099-4.096l-0.003-34.378h-1.824l0.012 34.378c0 2.26-1.836 4.096-4.099 4.096-2.264 0-4.097-1.836-4.097-4.096l-0.018-59.268h-1.8v21.841c0 4.393-5.731 4.393-5.72 0V292.17c0-4.855 2.854-9.612 8.535-9.612l16.381-0.006c5.177 0 8.42 4.22 8.42 9.485v22.44c0 4.362-5.764 4.362-5.764 0v-21.841h-1.836L-259.574 351.904z" fill="#d6350e" data-fill-palette-color="accent"></path><path d="M-259.574 351.904c0 2.26-1.836 4.096-4.1 4.096s-4.099-1.836-4.099-4.096l-0.003-34.378h-1.824l0.012 34.378c0 2.26-1.836 4.096-4.099 4.096-2.264 0-4.097-1.836-4.097-4.096l-0.018-59.268h-1.8v21.841c0 4.393-5.731 4.393-5.72 0V292.17c0-4.855 2.854-9.612 8.535-9.612l16.381-0.006c5.177 0 8.42 4.22 8.42 9.485v22.44c0 4.362-5.764 4.362-5.764 0v-21.841h-1.836L-259.574 351.904z" fill="#d6350e" data-fill-palette-color="accent"></path></g></svg></g></svg></g><g></g></svg></g><defs></defs></svg><rect width="381.89129715879994" height="327.2" fill="none" stroke="none" visibility="hidden"></rect></g></svg></g></svg>